<svg xmlns="http://www.w3.org/2000/svg" xmlns:xlink="http://www.w3.org/1999/xlink" version="1.1" data-diagram-type="DESCRIPTION" style="width:1034px;height:2788px;background:#FFFFFF;" width="1034px" height="2788px" viewBox="0 0 1034 2788" zoomAndPan="magnify" preserveAspectRatio="none" contentStyleType="text/css"><?plantuml 1.2026.8?><defs/><g font-family="sans-serif" lengthAdjust="spacing"><g class="title" data-source-line="1"><text x="268.264" y="22.995" fill="#000" font-size="14" textLength="490.472" font-weight="700">Rs-Cn resource connectivity: User interface (from Cargo.toml)</text></g><!--cluster User interface--><g class="cluster" data-qualified-name="User interface" id="ent0001" data-source-line="6"><path d="M16.5,687.684 L129.664,687.684 A3.75,3.75 0 0 1 132.164,690.184 L139.164,709.981 L716.5,709.981 A2.5,2.5 0 0 1 719,712.481 L719,818.184 A2.5,2.5 0 0 1 716.5,820.684 L16.5,820.684 A2.5,2.5 0 0 1 14,818.184 L14,690.184 A2.5,2.5 0 0 1 16.5,687.684" style="stroke:#000;stroke-width:1.5;" fill="none"/><line x1="14" y1="709.981" x2="139.164" y2="709.981" style="stroke:#000;stroke-width:1.5;"/><text x="18" y="702.679" fill="#000" font-size="14" textLength="112.164" font-weight="700">User interface</text></g><!--entity RS_analytics--><g class="entity" data-qualified-name="RS_analytics" id="ent0005" data-source-line="11"><rect x="171" y="254.184" width="334.938" height="68.891" fill="#F1F1F1" style="stroke:#181818;stroke-width:1;stroke-dasharray:7,7;" rx="2.5" ry="2.5"/><text x="300.663" y="277.179" fill="#000" font-size="14" textLength="75.612" font-style="italic">«External»</text><text x="181" y="293.476" fill="#000" font-size="14" textLength="62.576">analytics</text><text x="181" y="309.773" fill="#000" font-size="14" textLength="314.938">(see Rs-Cn-understand-maintain-the-picture)</text></g><!--entity RS_assessment--><g class="entity" data-qualified-name="RS_assessment" id="ent0006" data-source-line="12"><rect x="185.5" y="341.184" width="305.852" height="68.891" fill="#F1F1F1" style="stroke:#181818;stroke-width:1;stroke-dasharray:7,7;" rx="2.5" ry="2.5"/><text x="300.62" y="364.179" fill="#000" font-size="14" textLength="75.612" font-style="italic">«External»</text><text x="195.5" y="380.476" fill="#000" font-size="14" textLength="82.981">assessment</text><text x="195.5" y="396.773" fill="#000" font-size="14" textLength="285.852">(see Rs-Cn-assess-decide-govern-action)</text></g><!--entity RS_command--><g class="entity" data-qualified-name="RS_command" id="ent0007" data-source-line="13"><rect x="185.5" y="428.184" width="305.852" height="68.891" fill="#F1F1F1" style="stroke:#181818;stroke-width:1;stroke-dasharray:7,7;" rx="2.5" ry="2.5"/><text x="300.62" y="451.179" fill="#000" font-size="14" textLength="75.612" font-style="italic">«External»</text><text x="195.5" y="467.476" fill="#000" font-size="14" textLength="69.877">command</text><text x="195.5" y="483.773" fill="#000" font-size="14" textLength="285.852">(see Rs-Cn-assess-decide-govern-action)</text></g><!--entity RS_config--><g class="entity" data-qualified-name="RS_config" id="ent0008" data-source-line="14"><rect x="241.5" y="515.184" width="193.66" height="68.891" fill="#F1F1F1" style="stroke:#181818;stroke-width:1;stroke-dasharray:7,7;" rx="2.5" ry="2.5"/><text x="300.524" y="538.179" fill="#000" font-size="14" textLength="75.612" font-style="italic">«External»</text><text x="251.5" y="554.476" fill="#000" font-size="14" textLength="42.841">config</text><text x="251.5" y="570.773" fill="#000" font-size="14" textLength="173.66">(see Rs-Cn-foundational)</text></g><!--entity RS_coord--><g class="entity" data-qualified-name="RS_coord" id="ent0009" data-source-line="15"><rect x="239" y="602.184" width="198.63" height="68.891" fill="#F1F1F1" style="stroke:#181818;stroke-width:1;stroke-dasharray:7,7;" rx="2.5" ry="2.5"/><text x="300.509" y="625.179" fill="#000" font-size="14" textLength="75.612" font-style="italic">«External»</text><text x="249" y="641.476" fill="#000" font-size="14" textLength="39.471">coord</text><text x="249" y="657.773" fill="#000" font-size="14" textLength="178.63">(see Rs-Cn-tracking-core)</text></g><!--entity RS_data--><g class="entity" data-qualified-name="RS_data" id="ent0010" data-source-line="16"><rect x="542" y="409.184" width="217.743" height="68.891" fill="#F1F1F1" style="stroke:#181818;stroke-width:1;stroke-dasharray:7,7;" rx="2.5" ry="2.5"/><text x="613.065" y="432.179" fill="#000" font-size="14" textLength="75.612" font-style="italic">«External»</text><text x="552" y="448.476" fill="#000" font-size="14" textLength="31.534">data</text><text x="552" y="464.773" fill="#000" font-size="14" textLength="197.743">(see Rs-Cn-data-ecosystem)</text></g><!--entity RS_data_fusion--><g class="entity" data-qualified-name="RS_data_fusion" id="ent0011" data-source-line="17"><rect x="542" y="956.184" width="217.743" height="68.891" fill="#F1F1F1" style="stroke:#181818;stroke-width:1;stroke-dasharray:7,7;" rx="2.5" ry="2.5"/><text x="613.065" y="979.179" fill="#000" font-size="14" textLength="75.612" font-style="italic">«External»</text><text x="552" y="995.476" fill="#000" font-size="14" textLength="80.958">data_fusion</text><text x="552" y="1011.773" fill="#000" font-size="14" textLength="197.743">(see Rs-Cn-data-ecosystem)</text></g><!--entity RS_decision--><g class="entity" data-qualified-name="RS_decision" id="ent0012" data-source-line="18"><rect x="185.5" y="2355.184" width="305.852" height="68.891" fill="#F1F1F1" style="stroke:#181818;stroke-width:1;stroke-dasharray:7,7;" rx="2.5" ry="2.5"/><text x="300.62" y="2378.179" fill="#000" font-size="14" textLength="75.612" font-style="italic">«External»</text><text x="195.5" y="2394.476" fill="#000" font-size="14" textLength="57.709">decision</text><text x="195.5" y="2410.773" fill="#000" font-size="14" textLength="285.852">(see Rs-Cn-assess-decide-govern-action)</text></g><!--entity RS_eventing--><g class="entity" data-qualified-name="RS_eventing" id="ent0013" data-source-line="19"><rect x="241.5" y="2442.184" width="193.66" height="68.891" fill="#F1F1F1" style="stroke:#181818;stroke-width:1;stroke-dasharray:7,7;" rx="2.5" ry="2.5"/><text x="300.524" y="2465.179" fill="#000" font-size="14" textLength="75.612" font-style="italic">«External»</text><text x="251.5" y="2481.476" fill="#000" font-size="14" textLength="61.523">eventing</text><text x="251.5" y="2497.773" fill="#000" font-size="14" textLength="173.66">(see Rs-Cn-foundational)</text></g><!--entity RS_geo--><g class="entity" data-qualified-name="RS_geo" id="ent0014" data-source-line="20"><rect x="171" y="2529.184" width="334.938" height="68.891" fill="#F1F1F1" style="stroke:#181818;stroke-width:1;stroke-dasharray:7,7;" rx="2.5" ry="2.5"/><text x="300.663" y="2552.179" fill="#000" font-size="14" textLength="75.612" font-style="italic">«External»</text><text x="181" y="2568.476" fill="#000" font-size="14" textLength="26.065">geo</text><text x="181" y="2584.773" fill="#000" font-size="14" textLength="314.938">(see Rs-Cn-understand-maintain-the-picture)</text></g><!--entity RS_identification--><g class="entity" data-qualified-name="RS_identification" id="ent0015" data-source-line="21"><rect x="171" y="2616.184" width="334.938" height="68.891" fill="#F1F1F1" style="stroke:#181818;stroke-width:1;stroke-dasharray:7,7;" rx="2.5" ry="2.5"/><text x="300.663" y="2639.179" fill="#000" font-size="14" textLength="75.612" font-style="italic">«External»</text><text x="181" y="2655.476" fill="#000" font-size="14" textLength="91.554">identification</text><text x="181" y="2671.773" fill="#000" font-size="14" textLength="314.938">(see Rs-Cn-understand-maintain-the-picture)</text></g><!--entity RS_identity--><g class="entity" data-qualified-name="RS_identity" id="ent0016" data-source-line="22"><rect x="171" y="2703.184" width="334.938" height="68.891" fill="#F1F1F1" style="stroke:#181818;stroke-width:1;stroke-dasharray:7,7;" rx="2.5" ry="2.5"/><text x="300.663" y="2726.179" fill="#000" font-size="14" textLength="75.612" font-style="italic">«External»</text><text x="181" y="2742.476" fill="#000" font-size="14" textLength="53.416">identity</text><text x="181" y="2758.773" fill="#000" font-size="14" textLength="314.938">(see Rs-Cn-understand-maintain-the-picture)</text></g><!--entity RS_ingest--><g class="entity" data-qualified-name="RS_ingest" id="ent0017" data-source-line="23"><rect x="204" y="837.184" width="268.657" height="68.891" fill="#F1F1F1" style="stroke:#181818;stroke-width:1;stroke-dasharray:7,7;" rx="2.5" ry="2.5"/><text x="300.522" y="860.179" fill="#000" font-size="14" textLength="75.612" font-style="italic">«External»</text><text x="214" y="876.476" fill="#000" font-size="14" textLength="43.046">ingest</text><text x="214" y="892.773" fill="#000" font-size="14" textLength="248.657">(see Rs-Cn-sense-ingest-normalize)</text></g><!--entity RS_intercept_service--><g class="entity" data-qualified-name="RS_intercept_service" id="ent0018" data-source-line="24"><rect x="231" y="924.184" width="215.446" height="68.891" fill="#F1F1F1" style="stroke:#181818;stroke-width:1;stroke-dasharray:7,7;" rx="2.5" ry="2.5"/><text x="300.917" y="947.179" fill="#000" font-size="14" textLength="75.612" font-style="italic">«External»</text><text x="241" y="963.476" fill="#000" font-size="14" textLength="120.456">intercept_service</text><text x="241" y="979.773" fill="#000" font-size="14" textLength="195.446">(see Rs-Cn-service-facades)</text></g><!--entity RS_mission--><g class="entity" data-qualified-name="RS_mission" id="ent0019" data-source-line="25"><rect x="241.5" y="1011.184" width="193.66" height="68.891" fill="#F1F1F1" style="stroke:#181818;stroke-width:1;stroke-dasharray:7,7;" rx="2.5" ry="2.5"/><text x="300.524" y="1034.179" fill="#000" font-size="14" textLength="75.612" font-style="italic">«External»</text><text x="251.5" y="1050.476" fill="#000" font-size="14" textLength="53.443">mission</text><text x="251.5" y="1066.773" fill="#000" font-size="14" textLength="173.66">(see Rs-Cn-foundational)</text></g><!--entity RS_model--><g class="entity" data-qualified-name="RS_model" id="ent0020" data-source-line="26"><rect x="796" y="678.184" width="229.836" height="68.891" fill="#F1F1F1" style="stroke:#181818;stroke-width:1;stroke-dasharray:7,7;" rx="2.5" ry="2.5"/><text x="873.112" y="701.179" fill="#000" font-size="14" textLength="75.612" font-style="italic">«External»</text><text x="806" y="717.476" fill="#000" font-size="14" textLength="43.593">model</text><text x="806" y="733.773" fill="#000" font-size="14" textLength="209.836">(see Rs-Cn-foundation-model)</text></g><!--entity RS_modelops--><g class="entity" data-qualified-name="RS_modelops" id="ent0021" data-source-line="27"><rect x="185.5" y="1137.184" width="305.852" height="68.891" fill="#F1F1F1" style="stroke:#181818;stroke-width:1;stroke-dasharray:7,7;" rx="2.5" ry="2.5"/><text x="300.62" y="1160.179" fill="#000" font-size="14" textLength="75.612" font-style="italic">«External»</text><text x="195.5" y="1176.476" fill="#000" font-size="14" textLength="68.339">modelops</text><text x="195.5" y="1192.773" fill="#000" font-size="14" textLength="285.852">(see Rs-Cn-assess-decide-govern-action)</text></g><!--entity RS_observability--><g class="entity" data-qualified-name="RS_observability" id="ent0022" data-source-line="28"><rect x="205" y="1224.184" width="267.413" height="68.891" fill="#F1F1F1" style="stroke:#181818;stroke-width:1;stroke-dasharray:7,7;" rx="2.5" ry="2.5"/><text x="300.9" y="1247.179" fill="#000" font-size="14" textLength="75.612" font-style="italic">«External»</text><text x="215" y="1263.476" fill="#000" font-size="14" textLength="90.31">observability</text><text x="215" y="1279.773" fill="#000" font-size="14" textLength="247.413">(see Rs-Cn-secure-operate-sustain)</text></g><!--entity RS_policy--><g class="entity" data-qualified-name="RS_policy" id="ent0023" data-source-line="29"><rect x="185.5" y="1311.184" width="305.852" height="68.891" fill="#F1F1F1" style="stroke:#181818;stroke-width:1;stroke-dasharray:7,7;" rx="2.5" ry="2.5"/><text x="300.62" y="1334.179" fill="#000" font-size="14" textLength="75.612" font-style="italic">«External»</text><text x="195.5" y="1350.476" fill="#000" font-size="14" textLength="41.214">policy</text><text x="195.5" y="1366.773" fill="#000" font-size="14" textLength="285.852">(see Rs-Cn-assess-decide-govern-action)</text></g><!--entity RS_remote--><g class="entity" data-qualified-name="RS_remote" id="ent0024" data-source-line="30"><rect x="244" y="1398.184" width="189.408" height="68.891" fill="#F1F1F1" style="stroke:#181818;stroke-width:1;stroke-dasharray:7,7;" rx="2.5" ry="2.5"/><text x="300.898" y="1421.179" fill="#000" font-size="14" textLength="75.612" font-style="italic">«External»</text><text x="254" y="1437.476" fill="#000" font-size="14" textLength="50.675">remote</text><text x="254" y="1453.773" fill="#000" font-size="14" textLength="169.408">(see Rs-Cn-deployment)</text></g><!--entity RS_render--><g class="entity" data-qualified-name="RS_render" id="ent0025" data-source-line="31"><rect x="229.5" y="1485.184" width="217.743" height="68.891" fill="#F1F1F1" style="stroke:#181818;stroke-width:1;stroke-dasharray:7,7;" rx="2.5" ry="2.5"/><text x="300.565" y="1508.179" fill="#000" font-size="14" textLength="75.612" font-style="italic">«External»</text><text x="239.5" y="1524.476" fill="#000" font-size="14" textLength="46.498">render</text><text x="239.5" y="1540.773" fill="#000" font-size="14" textLength="197.743">(see Rs-Cn-data-ecosystem)</text></g><!--entity RS_replay--><g class="entity" data-qualified-name="RS_replay" id="ent0026" data-source-line="32"><rect x="205" y="1572.184" width="267.413" height="68.891" fill="#F1F1F1" style="stroke:#181818;stroke-width:1;stroke-dasharray:7,7;" rx="2.5" ry="2.5"/><text x="300.9" y="1595.179" fill="#000" font-size="14" textLength="75.612" font-style="italic">«External»</text><text x="215" y="1611.476" fill="#000" font-size="14" textLength="44.01">replay</text><text x="215" y="1627.773" fill="#000" font-size="14" textLength="247.413">(see Rs-Cn-secure-operate-sustain)</text></g><!--entity RS_reporting--><g class="entity" data-qualified-name="RS_reporting" id="ent0027" data-source-line="33"><rect x="205" y="1659.184" width="267.413" height="68.891" fill="#F1F1F1" style="stroke:#181818;stroke-width:1;stroke-dasharray:7,7;" rx="2.5" ry="2.5"/><text x="300.9" y="1682.179" fill="#000" font-size="14" textLength="75.612" font-style="italic">«External»</text><text x="215" y="1698.476" fill="#000" font-size="14" textLength="64.716">reporting</text><text x="215" y="1714.773" fill="#000" font-size="14" textLength="247.413">(see Rs-Cn-secure-operate-sustain)</text></g><!--entity RS_resilience--><g class="entity" data-qualified-name="RS_resilience" id="ent0028" data-source-line="34"><rect x="205" y="1746.184" width="267.413" height="68.891" fill="#F1F1F1" style="stroke:#181818;stroke-width:1;stroke-dasharray:7,7;" rx="2.5" ry="2.5"/><text x="300.9" y="1769.179" fill="#000" font-size="14" textLength="75.612" font-style="italic">«External»</text><text x="215" y="1785.476" fill="#000" font-size="14" textLength="67.129">resilience</text><text x="215" y="1801.773" fill="#000" font-size="14" textLength="247.413">(see Rs-Cn-secure-operate-sustain)</text></g><!--entity RS_security--><g class="entity" data-qualified-name="RS_security" id="ent0029" data-source-line="35"><rect x="205" y="1833.184" width="267.413" height="68.891" fill="#F1F1F1" style="stroke:#181818;stroke-width:1;stroke-dasharray:7,7;" rx="2.5" ry="2.5"/><text x="300.9" y="1856.179" fill="#000" font-size="14" textLength="75.612" font-style="italic">«External»</text><text x="215" y="1872.476" fill="#000" font-size="14" textLength="55.897">security</text><text x="215" y="1888.773" fill="#000" font-size="14" textLength="247.413">(see Rs-Cn-secure-operate-sustain)</text></g><!--entity RS_sensor_management--><g class="entity" data-qualified-name="RS_sensor_management" id="ent0030" data-source-line="36"><rect x="204" y="1920.184" width="268.657" height="68.891" fill="#F1F1F1" style="stroke:#181818;stroke-width:1;stroke-dasharray:7,7;" rx="2.5" ry="2.5"/><text x="300.522" y="1943.179" fill="#000" font-size="14" textLength="75.612" font-style="italic">«External»</text><text x="214" y="1959.476" fill="#000" font-size="14" textLength="147.178">sensor_management</text><text x="214" y="1975.773" fill="#000" font-size="14" textLength="248.657">(see Rs-Cn-sense-ingest-normalize)</text></g><!--entity RS_store--><g class="entity" data-qualified-name="RS_store" id="ent0031" data-source-line="37"><rect x="241.5" y="2007.184" width="193.66" height="68.891" fill="#F1F1F1" style="stroke:#181818;stroke-width:1;stroke-dasharray:7,7;" rx="2.5" ry="2.5"/><text x="300.524" y="2030.179" fill="#000" font-size="14" textLength="75.612" font-style="italic">«External»</text><text x="251.5" y="2046.476" fill="#000" font-size="14" textLength="35.718">store</text><text x="251.5" y="2062.773" fill="#000" font-size="14" textLength="173.66">(see Rs-Cn-foundational)</text></g><!--entity RS_time--><g class="entity" data-qualified-name="RS_time" id="ent0032" data-source-line="38"><rect x="204" y="2094.184" width="268.657" height="68.891" fill="#F1F1F1" style="stroke:#181818;stroke-width:1;stroke-dasharray:7,7;" rx="2.5" ry="2.5"/><text x="300.522" y="2117.179" fill="#000" font-size="14" textLength="75.612" font-style="italic">«External»</text><text x="214" y="2133.476" fill="#000" font-size="14" textLength="31.63">time</text><text x="214" y="2149.773" fill="#000" font-size="14" textLength="248.657">(see Rs-Cn-sense-ingest-normalize)</text></g><!--entity RS_tracking_service--><g class="entity" data-qualified-name="RS_tracking_service" id="ent0033" data-source-line="39"><rect x="231" y="2181.184" width="215.446" height="68.891" fill="#F1F1F1" style="stroke:#181818;stroke-width:1;stroke-dasharray:7,7;" rx="2.5" ry="2.5"/><text x="300.917" y="2204.179" fill="#000" font-size="14" textLength="75.612" font-style="italic">«External»</text><text x="241" y="2220.476" fill="#000" font-size="14" textLength="114.427">tracking_service</text><text x="241" y="2236.773" fill="#000" font-size="14" textLength="195.446">(see Rs-Cn-service-facades)</text></g><!--entity RS_workflow--><g class="entity" data-qualified-name="RS_workflow" id="ent0034" data-source-line="40"><rect x="205" y="2268.184" width="267.413" height="68.891" fill="#F1F1F1" style="stroke:#181818;stroke-width:1;stroke-dasharray:7,7;" rx="2.5" ry="2.5"/><text x="300.9" y="2291.179" fill="#000" font-size="14" textLength="75.612" font-style="italic">«External»</text><text x="215" y="2307.476" fill="#000" font-size="14" textLength="62.713">workflow</text><text x="215" y="2323.773" fill="#000" font-size="14" textLength="247.413">(see Rs-Cn-secure-operate-sustain)</text></g><!--entity RS_app--><g class="entity" data-qualified-name="User interface.RS_app" id="ent0002" data-source-line="7"><rect x="30" y="751.184" width="105.442" height="52.594" fill="#F1F1F1" style="stroke:#181818;stroke-width:0.5;" rx="2.5" ry="2.5"/><text x="51.587" y="774.179" fill="#000" font-size="14" textLength="62.269" font-style="italic">«Binary»</text><text x="40" y="790.476" fill="#000" font-size="14" textLength="85.442">gungnir-app</text></g><!--entity RS_ui--><g class="entity" data-qualified-name="User interface.RS_ui" id="ent0003" data-source-line="8"><rect x="599" y="741.184" width="104.421" height="52.594" fill="#F1F1F1" style="stroke:#181818;stroke-width:0.5;" rx="2.5" ry="2.5"/><text x="610" y="764.179" fill="#000" font-size="14" textLength="82.421" font-style="italic">«Resource»</text><text x="615.284" y="780.476" fill="#000" font-size="14" textLength="71.853">gungnir-ui</text></g><!--entity RS_viewport3d--><g class="entity" data-qualified-name="User interface.RS_viewport3d" id="ent0004" data-source-line="9"><rect x="259.5" y="731.184" width="157.819" height="52.594" fill="#F1F1F1" style="stroke:#181818;stroke-width:0.5;" rx="2.5" ry="2.5"/><text x="297.199" y="754.179" fill="#000" font-size="14" textLength="82.421" font-style="italic">«Resource»</text><text x="269.5" y="770.476" fill="#000" font-size="14" textLength="137.819">gungnir-viewport3d</text></g><g class="link" data-entity-1="ent0002" data-entity-2="ent0009" id="lnk35" data-link-type="dependency"><polygon points="238.697,655.028,228.933,653.735,233.901,656.441,231.195,661.409,238.697,655.028" fill="#181818" style="stroke:#181818;stroke-width:1;stroke-linejoin:miter;stroke-miterlimit:10;"/><path d="M102.042,750.791 C117.993,729.61 142.837,700.88 171,683.684 C191.508,671.162 210.662,663.29 233.901,656.441" style="stroke:#181818;stroke-width:1;" fill="none"/></g><g class="link" data-entity-1="ent0002" data-entity-2="ent0033" id="lnk36" data-link-type="dependency"><polygon points="230.752,2208.645,223.21,2202.311,225.947,2207.262,220.997,2209.999,230.752,2208.645" fill="#181818" style="stroke:#181818;stroke-width:1;stroke-linejoin:miter;stroke-miterlimit:10;"/><path d="M83.325,804.396 C82.355,988.335 80.6,2063.231 171,2172.684 C186.114,2190.984 203.094,2200.681 225.947,2207.262" style="stroke:#181818;stroke-width:1;" fill="none"/></g><g class="link" data-entity-1="ent0002" data-entity-2="ent0018" id="lnk37" data-link-type="dependency"><polygon points="230.907,943.842,223.428,937.434,226.116,942.411,221.138,945.099,230.907,943.842" fill="#181818" style="stroke:#181818;stroke-width:1;stroke-linejoin:miter;stroke-miterlimit:10;"/><path d="M93.289,804.333 C106.218,835.76 132.01,887.302 171,915.684 C188.62,928.51 204.939,936.087 226.116,942.411" style="stroke:#181818;stroke-width:1;" fill="none"/></g><g class="link" data-entity-1="ent0002" data-entity-2="ent0024" id="lnk38" data-link-type="dependency"><polygon points="243.91,1427.845,235.993,1421.987,239.029,1426.76,234.256,1429.796,243.91,1427.845" fill="#181818" style="stroke:#181818;stroke-width:1;stroke-linejoin:miter;stroke-miterlimit:10;"/><path d="M83.526,804.278 C84.181,910.31 91.995,1301.409 171,1389.684 C189.616,1410.484 211.963,1420.741 239.029,1426.76" style="stroke:#181818;stroke-width:1;" fill="none"/></g><g class="link" data-entity-1="ent0002" data-entity-2="ent0028" id="lnk39" data-link-type="dependency"><polygon points="204.746,1763.277,198.453,1755.701,200.264,1761.06,194.905,1762.871,204.746,1763.277" fill="#181818" style="stroke:#181818;stroke-width:1;stroke-linejoin:miter;stroke-miterlimit:10;"/><path d="M84.132,804.545 C87.849,952.554 108.881,1664.6 171,1737.684 C180.281,1748.603 187.453,1754.722 200.264,1761.06" style="stroke:#181818;stroke-width:1;" fill="none"/></g><g class="link" data-entity-1="ent0002" data-entity-2="ent0015" id="lnk40" data-link-type="dependency"><polygon points="178.865,2616.144,175.072,2607.055,175.231,2612.709,169.576,2612.869,178.865,2616.144" fill="#181818" style="stroke:#181818;stroke-width:1;stroke-linejoin:miter;stroke-miterlimit:10;"/><path d="M83.881,804.519 C87.128,1025.215 111.473,2534.511 171,2607.684 C173.449,2610.695 172.445,2610.076 175.231,2612.709" style="stroke:#181818;stroke-width:1;" fill="none"/></g><g class="link" data-entity-1="ent0002" data-entity-2="ent0016" id="lnk41" data-link-type="dependency"><polygon points="178.856,2703.151,175.071,2694.058,175.225,2699.713,169.57,2699.868,178.856,2703.151" fill="#181818" style="stroke:#181818;stroke-width:1;stroke-linejoin:miter;stroke-miterlimit:10;"/><path d="M83.819,804.35 C86.634,1030.304 108.601,2617.811 171,2694.684 C173.446,2697.698 172.442,2697.078 175.225,2699.713" style="stroke:#181818;stroke-width:1;" fill="none"/></g><g class="link" data-entity-1="ent0002" data-entity-2="ent0010" id="lnk42" data-link-type="dependency"><polygon points="636.869,409.135,637.031,399.288,634.914,404.534,629.668,402.416,636.869,409.135" fill="#181818" style="stroke:#181818;stroke-width:1;stroke-linejoin:miter;stroke-miterlimit:10;"/><path d="M83.556,750.993 C84.38,652.397 92.911,310.999 171,244.684 C227.744,196.496 439.702,210.824 506,244.684 C573.602,279.211 614.858,357.33 634.914,404.534" style="stroke:#181818;stroke-width:1;" fill="none"/></g><g class="link" data-entity-1="ent0002" data-entity-2="ent0011" id="lnk43" data-link-type="dependency"><polygon points="613.372,1025.235,603.926,1028.025,609.565,1028.477,609.113,1034.116,613.372,1025.235" fill="#181818" style="stroke:#181818;stroke-width:1;stroke-linejoin:miter;stroke-miterlimit:10;"/><path d="M86.858,804.232 C96.167,873.105 124.713,1054.593 171,1089.684 C230.323,1134.659 434.906,1111.765 506,1089.684 C546.707,1077.041 582.3,1051.698 609.565,1028.477" style="stroke:#181818;stroke-width:1;" fill="none"/></g><g class="link" data-entity-1="ent0002" data-entity-2="ent0025" id="lnk44" data-link-type="dependency"><polygon points="229.393,1511.334,221.919,1504.921,224.604,1509.9,219.624,1512.584,229.393,1511.334" fill="#181818" style="stroke:#181818;stroke-width:1;stroke-linejoin:miter;stroke-miterlimit:10;"/><path d="M82.998,804.43 C81.389,919.879 80.95,1374.28 171,1476.684 C186.18,1493.947 202.502,1503.281 224.604,1509.9" style="stroke:#181818;stroke-width:1;" fill="none"/></g><g class="link" data-entity-1="ent0002" data-entity-2="ent0004" id="lnk45" data-link-type="dependency"><polygon points="259.323,763.84,250.037,760.559,254.339,764.232,250.665,768.534,259.323,763.84" fill="#181818" style="stroke:#181818;stroke-width:1;stroke-linejoin:miter;stroke-miterlimit:10;"/><path d="M135.207,773.613 C170.889,770.803 213.998,767.409 254.339,764.232" style="stroke:#181818;stroke-width:1;" fill="none"/></g><g class="link" data-entity-1="ent0002" data-entity-2="ent0003" id="lnk46" data-link-type="dependency"><polygon points="598.985,779.189,589.366,777.071,594.086,780.189,590.967,784.909,598.985,779.189" fill="#181818" style="stroke:#181818;stroke-width:1;stroke-linejoin:miter;stroke-miterlimit:10;"/><path d="M135.107,788.719 C146.851,790.784 159.311,792.624 171,793.684 C319.281,807.13 357.705,806.965 506,793.684 C537.123,790.897 566.682,785.787 594.086,780.189" style="stroke:#181818;stroke-width:1;" fill="none"/></g><g class="link" data-entity-1="ent0002" data-entity-2="ent0020" id="lnk47" data-link-type="dependency"><polygon points="899.703,678.043,900.786,668.254,898.187,673.279,893.163,670.68,899.703,678.043" fill="#181818" style="stroke:#181818;stroke-width:1;stroke-linejoin:miter;stroke-miterlimit:10;"/><path d="M83.309,750.967 C83.2,648.952 88.685,286.175 171,215.684 C379.31,37.297 584.29,189.11 760,399.684 C833.159,487.359 878.684,611.977 898.187,673.279" style="stroke:#181818;stroke-width:1;" fill="none"/></g><g class="link" data-entity-1="ent0002" data-entity-2="ent0008" id="lnk48" data-link-type="dependency"><polygon points="241.357,560.289,231.64,558.684,236.518,561.548,233.654,566.426,241.357,560.289" fill="#181818" style="stroke:#181818;stroke-width:1;stroke-linejoin:miter;stroke-miterlimit:10;"/><path d="M88.711,751.085 C98.005,710.866 121.321,634.907 171,593.684 C190.903,577.169 211.526,568.051 236.518,561.548" style="stroke:#181818;stroke-width:1;" fill="none"/></g><g class="link" data-entity-1="ent0002" data-entity-2="ent0019" id="lnk49" data-link-type="dependency"><polygon points="241.44,1036.869,233.68,1030.804,236.59,1035.655,231.739,1038.565,241.44,1036.869" fill="#181818" style="stroke:#181818;stroke-width:1;stroke-linejoin:miter;stroke-miterlimit:10;"/><path d="M86.077,804.293 C92.103,851.475 111.464,949.798 171,1002.684 C190.53,1020.033 211.31,1029.332 236.59,1035.655" style="stroke:#181818;stroke-width:1;" fill="none"/></g><g class="link" data-entity-1="ent0002" data-entity-2="ent0013" id="lnk50" data-link-type="dependency"><polygon points="241.461,2472.532,233.569,2466.641,236.585,2471.426,231.799,2474.442,241.461,2472.532" fill="#181818" style="stroke:#181818;stroke-width:1;stroke-linejoin:miter;stroke-miterlimit:10;"/><path d="M84.014,804.227 C88.146,1011.754 117.153,2367.83 171,2433.684 C188.386,2454.947 209.903,2465.375 236.585,2471.426" style="stroke:#181818;stroke-width:1;" fill="none"/></g><g class="link" data-entity-1="ent0002" data-entity-2="ent0031" id="lnk51" data-link-type="dependency"><polygon points="241.271,2037.231,233.393,2031.32,236.397,2036.113,231.604,2039.117,241.271,2037.231" fill="#181818" style="stroke:#181818;stroke-width:1;stroke-linejoin:miter;stroke-miterlimit:10;"/><path d="M83.577,804.263 C84.307,974.142 91.913,1903.792 171,1998.684 C188.489,2019.669 209.873,2030.028 236.397,2036.113" style="stroke:#181818;stroke-width:1;" fill="none"/></g><g class="link" data-entity-1="ent0002" data-entity-2="ent0032" id="lnk52" data-link-type="dependency"><polygon points="203.688,2111.096,197.477,2103.452,199.23,2108.83,193.852,2110.584,203.688,2111.096" fill="#181818" style="stroke:#181818;stroke-width:1;stroke-linejoin:miter;stroke-miterlimit:10;"/><path d="M83.443,804.417 C83.302,981.675 86.274,1983.535 171,2085.684 C179.958,2096.484 186.782,2102.503 199.23,2108.83" style="stroke:#181818;stroke-width:1;" fill="none"/></g><g class="link" data-entity-1="ent0002" data-entity-2="ent0017" id="lnk53" data-link-type="dependency"><polygon points="204.826,837.084,197.563,830.433,200.085,835.496,195.022,838.018,204.826,837.084" fill="#181818" style="stroke:#181818;stroke-width:1;stroke-linejoin:miter;stroke-miterlimit:10;"/><path d="M128.461,804.252 C141.86,811.502 156.771,818.934 171,824.684 C181.861,829.073 188.536,831.627 200.085,835.496" style="stroke:#181818;stroke-width:1;" fill="none"/></g><g class="link" data-entity-1="ent0002" data-entity-2="ent0022" id="lnk54" data-link-type="dependency"><polygon points="204.651,1239.688,198.296,1232.163,200.152,1237.507,194.808,1239.363,204.651,1239.688" fill="#181818" style="stroke:#181818;stroke-width:1;stroke-linejoin:miter;stroke-miterlimit:10;"/><path d="M85.189,804.317 C91.147,889.835 113.982,1155.407 171,1215.684 C180.54,1225.769 187.608,1231.429 200.152,1237.507" style="stroke:#181818;stroke-width:1;" fill="none"/></g><g class="link" data-entity-1="ent0002" data-entity-2="ent0034" id="lnk55" data-link-type="dependency"><polygon points="204.797,2285.767,198.517,2278.179,200.319,2283.542,194.957,2285.344,204.797,2285.767" fill="#181818" style="stroke:#181818;stroke-width:1;stroke-linejoin:miter;stroke-miterlimit:10;"/><path d="M84.19,804.473 C89.339,999.984 122.868,2201.19 171,2259.684 C180.2,2270.865 187.413,2277.128 200.319,2283.542" style="stroke:#181818;stroke-width:1;" fill="none"/></g><g class="link" data-entity-1="ent0002" data-entity-2="ent0029" id="lnk56" data-link-type="dependency"><polygon points="204.664,1850.346,198.381,1842.762,200.186,1848.123,194.824,1849.928,204.664,1850.346" fill="#181818" style="stroke:#181818;stroke-width:1;stroke-linejoin:miter;stroke-miterlimit:10;"/><path d="M83.914,804.388 C86.562,959.872 103.228,1744.34 171,1824.684 C180.24,1835.638 187.389,1841.773 200.186,1848.123" style="stroke:#181818;stroke-width:1;" fill="none"/></g><g class="link" data-entity-1="ent0002" data-entity-2="ent0023" id="lnk57" data-link-type="dependency"><polygon points="185.24,1315.458,180.394,1306.884,181.224,1312.479,175.628,1313.309,185.24,1315.458" fill="#181818" style="stroke:#181818;stroke-width:1;stroke-linejoin:miter;stroke-miterlimit:10;"/><path d="M84.225,804.375 C87.387,900.68 103.045,1228.5 171,1302.684 C175.336,1307.417 176.101,1308.68 181.224,1312.479" style="stroke:#181818;stroke-width:1;" fill="none"/></g><g class="link" data-entity-1="ent0002" data-entity-2="ent0007" id="lnk58" data-link-type="dependency"><polygon points="185.336,494.24,175.642,495.981,181.197,497.046,180.132,502.602,185.336,494.24" fill="#181818" style="stroke:#181818;stroke-width:1;stroke-linejoin:miter;stroke-miterlimit:10;"/><path d="M84.01,750.857 C86.554,696.396 100.269,572.394 171,505.684 C175.452,501.485 176.121,500.489 181.197,497.046" style="stroke:#181818;stroke-width:1;" fill="none"/></g><g class="link" data-entity-1="ent0002" data-entity-2="ent0014" id="lnk59" data-link-type="dependency"><polygon points="178.874,2529.136,175.072,2520.05,175.237,2525.705,169.583,2525.87,178.874,2529.136" fill="#181818" style="stroke:#181818;stroke-width:1;stroke-linejoin:miter;stroke-miterlimit:10;"/><path d="M83.943,804.25 C87.614,1017.997 114.304,2451.159 171,2520.684 C173.453,2523.692 172.449,2523.074 175.237,2525.705" style="stroke:#181818;stroke-width:1;" fill="none"/></g><g class="link" data-entity-1="ent0002" data-entity-2="ent0030" id="lnk60" data-link-type="dependency"><polygon points="203.798,1937.004,197.574,1929.371,199.337,1934.746,193.961,1936.509,203.798,1937.004" fill="#181818" style="stroke:#181818;stroke-width:1;stroke-linejoin:miter;stroke-miterlimit:10;"/><path d="M83.731,804.185 C85.383,966.662 97.555,1824.049 171,1911.684 C180.013,1922.438 186.867,1928.435 199.337,1934.746" style="stroke:#181818;stroke-width:1;" fill="none"/></g><g class="link" data-entity-1="ent0002" data-entity-2="ent0005" id="lnk61" data-link-type="dependency"><polygon points="179.782,323.443,170.306,326.127,175.939,326.642,175.424,332.275,179.782,323.443" fill="#181818" style="stroke:#181818;stroke-width:1;stroke-linejoin:miter;stroke-miterlimit:10;"/><path d="M85.076,751.177 C90.749,664.769 112.951,393.264 171,331.684 C173.765,328.751 172.858,329.207 175.939,326.642" style="stroke:#181818;stroke-width:1;" fill="none"/></g><g class="link" data-entity-1="ent0002" data-entity-2="ent0006" id="lnk62" data-link-type="dependency"><polygon points="185.308,406.58,175.653,408.524,181.229,409.473,180.281,415.05,185.308,406.58" fill="#181818" style="stroke:#181818;stroke-width:1;stroke-linejoin:miter;stroke-miterlimit:10;"/><path d="M86.473,750.92 C95.325,675.989 123.866,466.467 171,418.684 C175.403,414.221 176.125,413.093 181.229,409.473" style="stroke:#181818;stroke-width:1;" fill="none"/></g><g class="link" data-entity-1="ent0002" data-entity-2="ent0021" id="lnk63" data-link-type="dependency"><polygon points="187.845,1136.991,182.764,1128.554,183.748,1134.124,178.178,1135.108,187.845,1136.991" fill="#181818" style="stroke:#181818;stroke-width:1;stroke-linejoin:miter;stroke-miterlimit:10;"/><path d="M86.839,804.378 C96.449,877.092 126.373,1076.336 171,1122.684 C176.12,1128.002 177.689,1129.884 183.748,1134.124" style="stroke:#181818;stroke-width:1;" fill="none"/></g><g class="link" data-entity-1="ent0002" data-entity-2="ent0012" id="lnk64" data-link-type="dependency"><polygon points="185.264,2360.586,180.661,2351.878,181.333,2357.495,175.717,2358.167,185.264,2360.586" fill="#181818" style="stroke:#181818;stroke-width:1;stroke-linejoin:miter;stroke-miterlimit:10;"/><path d="M84.099,804.416 C88.73,1006.253 120.018,2284.52 171,2346.684 C175.26,2351.878 176.126,2353.401 181.333,2357.495" style="stroke:#181818;stroke-width:1;" fill="none"/></g><g class="link" data-entity-1="ent0002" data-entity-2="ent0026" id="lnk65" data-link-type="dependency"><polygon points="204.961,1589.092,198.643,1581.537,200.472,1586.89,195.119,1588.719,204.961,1589.092" fill="#181818" style="stroke:#181818;stroke-width:1;stroke-linejoin:miter;stroke-miterlimit:10;"/><path d="M84.689,804.251 C90.764,934.859 120.059,1504.951 171,1563.684 C180.389,1574.51 187.622,1580.585 200.472,1586.89" style="stroke:#181818;stroke-width:1;" fill="none"/></g><g class="link" data-entity-1="ent0002" data-entity-2="ent0027" id="lnk66" data-link-type="dependency"><polygon points="204.843,1676.194,198.539,1668.627,200.358,1673.984,195.002,1675.803,204.843,1676.194" fill="#181818" style="stroke:#181818;stroke-width:1;stroke-linejoin:miter;stroke-miterlimit:10;"/><path d="M84.383,804.365 C89.229,943.793 114.473,1584.783 171,1650.684 C180.33,1661.561 187.53,1667.661 200.358,1673.984" style="stroke:#181818;stroke-width:1;" fill="none"/></g><g class="link" data-entity-1="ent0003" data-entity-2="ent0020" id="lnk67" data-link-type="dependency"><polygon points="795.869,737.015,786.232,734.979,790.978,738.057,787.9,742.803,795.869,737.015" fill="#181818" style="stroke:#181818;stroke-width:1;stroke-linejoin:miter;stroke-miterlimit:10;"/><path d="M703.281,756.752 C729.88,751.082 758.617,744.956 790.978,738.057" style="stroke:#181818;stroke-width:1;" fill="none"/></g><g class="link" data-entity-1="ent0004" data-entity-2="ent0010" id="lnk68" data-link-type="dependency"><polygon points="636.726,478.262,629.585,485.046,634.812,482.881,636.976,488.108,636.726,478.262" fill="#181818" style="stroke:#181818;stroke-width:1;stroke-linejoin:miter;stroke-miterlimit:10;"/><path d="M417.646,732.691 C447.637,720.399 480.702,703.277 506,680.684 C570.816,622.797 613.905,533.338 634.812,482.881" style="stroke:#181818;stroke-width:1;" fill="none"/></g><g class="link" data-entity-1="ent0004" data-entity-2="ent0011" id="lnk69" data-link-type="dependency"><polygon points="626.269,955.93,624.23,946.294,623.337,951.88,617.751,950.986,626.269,955.93" fill="#181818" style="stroke:#181818;stroke-width:1;stroke-linejoin:miter;stroke-miterlimit:10;"/><path d="M417.831,782.867 C447.017,794.303 479.47,809.599 506,828.684 C555.639,864.393 597.349,915.993 623.337,951.88" style="stroke:#181818;stroke-width:1;" fill="none"/></g><g class="link" data-entity-1="ent0004" data-entity-2="ent0020" id="lnk70" data-link-type="dependency"><polygon points="795.889,716.868,786.723,713.263,790.894,717.085,787.071,721.256,795.889,716.868" fill="#181818" style="stroke:#181818;stroke-width:1;stroke-linejoin:miter;stroke-miterlimit:10;"/><path d="M417.74,746.756 C455.264,741.84 500.894,736.334 542,732.684 C626.923,725.143 718.147,720.251 790.894,717.085" style="stroke:#181818;stroke-width:1;" fill="none"/></g><g class="link" data-entity-1="ent0004" data-entity-2="ent0003" id="lnk71" data-link-type="dependency"><polygon points="598.945,766.04,590.078,761.752,593.947,765.879,589.821,769.748,598.945,766.04" fill="#181818" style="stroke:#181818;stroke-width:1;stroke-linejoin:miter;stroke-miterlimit:10;"/><path d="M417.852,760.208 C474.623,762.036 544.75,764.294 593.947,765.879" style="stroke:#181818;stroke-width:1;" fill="none"/></g><?plantuml-src fLVDRjim3BxxARJiqXxKosv3aSEAlK2BtGO4gaqxGcr9aEHqth1t7-M_s5BQqDqXICAVxvD8YgAyz3MmHySV5BFWT6jpOBbM2d8lJz9tNzaF1vP9vS6M0fKtfTKDUn2sqdTUD_LjzibOKJM2rQBJhMUk0I-KoDoBL4POqI1UOxG2vPzyXsmMiOMgQbYOr5A1xmmmRVrHPpMKdddDhAoEdXKok4YjCYFo5r41swqNjMD_CdQcORkgLPMIbWjZTamuzlXqm9_i_lwRLC9s-_rbyrPErgr4uySn86-PdoIy6bpmbs9oEqlMxd-pXJi6f-wypDrFTUDWZ3vlLG7MOM0AtWZS6NwuFm8tClUjXTjv7vCtCdp_XG70__iz-nmYU5S8TuHYHUOSE4o9yYksGSmBo6K1lD8dnE6Y3_APQNQbKU7F1fU_cMVqevAeKbOhZb9Zx4I05FK2DDXHCRLTBzjRB3IfAfxhHUXxEneahaUi48E0GwvTvpmqCsGGqn4FPUjmcrJWqPo8ZobAm2dfcnnfD732BupizGnEbZJS2lI7ZXFwqGWm0BYSKkRzEZ_4jOROGkkx_o3q7P5ALU3MRSA1Si071LVQDgAMlnVulOAAZYOv67_0rdsIEKH4lOnZDnS5k0L3v4KZQwHBQlbYaOs6H5HTGFq69k-LPzpmRmEgDcxpmPiSQJJwEKHGFCiwhYO7EHODrmQiyC1Twq91pJGhHngNqRNCkyqR6jne51OQxTSrL82fTHVkgnbniA8YXbD5wQs39HNLu5oq9Tw31naTfusudLud69oe70vJ3oeviLT89YyQIm-tiJ8d7og3SjeUSDJ02J8PYAvqkiIPoEbnVhZUXNep6gAN3MnPUB0d8eyppwR-73lHg5wrVIbh_RebsPFFEmpZbC_vVfxM8bcyt4YTt3QHVcWdYN2gz1XjTTrVLFek4eUESq4qJd89S-X3aV3y18aKhOm4_VsH12sCpR7XS4b6qca-YyHzBSTXno9CGXqADXAkhff8D-K_fXjxG2GUhf9aS_r38vBY19XWHeSzqizFi5W-FvWkHHflwZYpu-ISf3LS0AbmQDhPy3gDSxXuUKQbT5cpgAZKu1tKLlu3?></g></svg>