<svg xmlns="http://www.w3.org/2000/svg" xmlns:xlink="http://www.w3.org/1999/xlink" version="1.1" data-diagram-type="DESCRIPTION" style="width:1034px;height:2834px;background:#FFFFFF;" width="1034px" height="2834px" viewBox="0 0 1034 2834" zoomAndPan="magnify" preserveAspectRatio="none" contentStyleType="text/css"><?plantuml 1.2026.8?><defs/><g font-family="sans-serif" lengthAdjust="spacing"><g class="title" data-source-line="1"><text x="268.264" y="22.995" fill="#000" font-size="14" textLength="490.472" font-weight="700">Rs-Cn resource connectivity: User interface (from Cargo.toml)</text></g><!--cluster User interface--><g class="cluster" data-qualified-name="User interface" id="ent0001" data-source-line="6"><path d="M16.5,646.797 L129.664,646.797 A3.75,3.75 0 0 1 132.164,649.297 L139.164,669.094 L716.5,669.094 A2.5,2.5 0 0 1 719,671.594 L719,777.297 A2.5,2.5 0 0 1 716.5,779.797 L16.5,779.797 A2.5,2.5 0 0 1 14,777.297 L14,649.297 A2.5,2.5 0 0 1 16.5,646.797" style="stroke:#000;stroke-width:1.5;" fill="none"/><line x1="14" y1="669.094" x2="139.164" y2="669.094" style="stroke:#000;stroke-width:1.5;"/><text x="18" y="661.792" fill="#000" font-size="14" textLength="112.164" font-weight="700">User interface</text></g><!--entity RS_analytics--><g class="entity" data-qualified-name="RS_analytics" id="ent0005" data-source-line="11"><rect x="171" y="387.297" width="334.938" height="68.891" fill="#F1F1F1" style="stroke:#181818;stroke-width:1;stroke-dasharray:7,7;" rx="2.5" ry="2.5"/><text x="300.663" y="410.292" fill="#000" font-size="14" textLength="75.612" font-style="italic">«External»</text><text x="181" y="426.589" fill="#000" font-size="14" textLength="62.576">analytics</text><text x="181" y="442.886" fill="#000" font-size="14" textLength="314.938">(see Rs-Cn-understand-maintain-the-picture)</text></g><!--entity RS_approval--><g class="entity" data-qualified-name="RS_approval" id="ent0006" data-source-line="12"><rect x="185.5" y="474.297" width="305.852" height="68.891" fill="#F1F1F1" style="stroke:#181818;stroke-width:1;stroke-dasharray:7,7;" rx="2.5" ry="2.5"/><text x="300.62" y="497.292" fill="#000" font-size="14" textLength="75.612" font-style="italic">«External»</text><text x="195.5" y="513.589" fill="#000" font-size="14" textLength="61.428">approval</text><text x="195.5" y="529.886" fill="#000" font-size="14" textLength="285.852">(see Rs-Cn-assess-decide-govern-action)</text></g><!--entity RS_assessment--><g class="entity" data-qualified-name="RS_assessment" id="ent0007" data-source-line="13"><rect x="185.5" y="561.297" width="305.852" height="68.891" fill="#F1F1F1" style="stroke:#181818;stroke-width:1;stroke-dasharray:7,7;" rx="2.5" ry="2.5"/><text x="300.62" y="584.292" fill="#000" font-size="14" textLength="75.612" font-style="italic">«External»</text><text x="195.5" y="600.589" fill="#000" font-size="14" textLength="82.981">assessment</text><text x="195.5" y="616.886" fill="#000" font-size="14" textLength="285.852">(see Rs-Cn-assess-decide-govern-action)</text></g><!--entity RS_command--><g class="entity" data-qualified-name="RS_command" id="ent0008" data-source-line="14"><rect x="185.5" y="49.297" width="305.852" height="68.891" fill="#F1F1F1" style="stroke:#181818;stroke-width:1;stroke-dasharray:7,7;" rx="2.5" ry="2.5"/><text x="300.62" y="72.292" fill="#000" font-size="14" textLength="75.612" font-style="italic">«External»</text><text x="195.5" y="88.589" fill="#000" font-size="14" textLength="69.877">command</text><text x="195.5" y="104.886" fill="#000" font-size="14" textLength="285.852">(see Rs-Cn-assess-decide-govern-action)</text></g><!--entity RS_config--><g class="entity" data-qualified-name="RS_config" id="ent0009" data-source-line="15"><rect x="241.5" y="136.297" width="193.66" height="68.891" fill="#F1F1F1" style="stroke:#181818;stroke-width:1;stroke-dasharray:7,7;" rx="2.5" ry="2.5"/><text x="300.524" y="159.292" fill="#000" font-size="14" textLength="75.612" font-style="italic">«External»</text><text x="251.5" y="175.589" fill="#000" font-size="14" textLength="42.841">config</text><text x="251.5" y="191.886" fill="#000" font-size="14" textLength="173.66">(see Rs-Cn-foundational)</text></g><!--entity RS_coord--><g class="entity" data-qualified-name="RS_coord" id="ent0010" data-source-line="16"><rect x="239" y="223.297" width="198.63" height="68.891" fill="#F1F1F1" style="stroke:#181818;stroke-width:1;stroke-dasharray:7,7;" rx="2.5" ry="2.5"/><text x="300.509" y="246.292" fill="#000" font-size="14" textLength="75.612" font-style="italic">«External»</text><text x="249" y="262.589" fill="#000" font-size="14" textLength="39.471">coord</text><text x="249" y="278.886" fill="#000" font-size="14" textLength="178.63">(see Rs-Cn-tracking-core)</text></g><!--entity RS_data--><g class="entity" data-qualified-name="RS_data" id="ent0011" data-source-line="17"><rect x="542" y="455.297" width="217.743" height="68.891" fill="#F1F1F1" style="stroke:#181818;stroke-width:1;stroke-dasharray:7,7;" rx="2.5" ry="2.5"/><text x="613.065" y="478.292" fill="#000" font-size="14" textLength="75.612" font-style="italic">«External»</text><text x="552" y="494.589" fill="#000" font-size="14" textLength="31.534">data</text><text x="552" y="510.886" fill="#000" font-size="14" textLength="197.743">(see Rs-Cn-data-ecosystem)</text></g><!--entity RS_data_fusion--><g class="entity" data-qualified-name="RS_data_fusion" id="ent0012" data-source-line="18"><rect x="542" y="958.297" width="217.743" height="68.891" fill="#F1F1F1" style="stroke:#181818;stroke-width:1;stroke-dasharray:7,7;" rx="2.5" ry="2.5"/><text x="613.065" y="981.292" fill="#000" font-size="14" textLength="75.612" font-style="italic">«External»</text><text x="552" y="997.589" fill="#000" font-size="14" textLength="80.958">data_fusion</text><text x="552" y="1013.886" fill="#000" font-size="14" textLength="197.743">(see Rs-Cn-data-ecosystem)</text></g><!--entity RS_decision--><g class="entity" data-qualified-name="RS_decision" id="ent0013" data-source-line="19"><rect x="185.5" y="2488.297" width="305.852" height="68.891" fill="#F1F1F1" style="stroke:#181818;stroke-width:1;stroke-dasharray:7,7;" rx="2.5" ry="2.5"/><text x="300.62" y="2511.292" fill="#000" font-size="14" textLength="75.612" font-style="italic">«External»</text><text x="195.5" y="2527.589" fill="#000" font-size="14" textLength="57.709">decision</text><text x="195.5" y="2543.886" fill="#000" font-size="14" textLength="285.852">(see Rs-Cn-assess-decide-govern-action)</text></g><!--entity RS_eventing--><g class="entity" data-qualified-name="RS_eventing" id="ent0014" data-source-line="20"><rect x="241.5" y="2575.297" width="193.66" height="68.891" fill="#F1F1F1" style="stroke:#181818;stroke-width:1;stroke-dasharray:7,7;" rx="2.5" ry="2.5"/><text x="300.524" y="2598.292" fill="#000" font-size="14" textLength="75.612" font-style="italic">«External»</text><text x="251.5" y="2614.589" fill="#000" font-size="14" textLength="61.523">eventing</text><text x="251.5" y="2630.886" fill="#000" font-size="14" textLength="173.66">(see Rs-Cn-foundational)</text></g><!--entity RS_geo--><g class="entity" data-qualified-name="RS_geo" id="ent0015" data-source-line="21"><rect x="171" y="2662.297" width="334.938" height="68.891" fill="#F1F1F1" style="stroke:#181818;stroke-width:1;stroke-dasharray:7,7;" rx="2.5" ry="2.5"/><text x="300.663" y="2685.292" fill="#000" font-size="14" textLength="75.612" font-style="italic">«External»</text><text x="181" y="2701.589" fill="#000" font-size="14" textLength="26.065">geo</text><text x="181" y="2717.886" fill="#000" font-size="14" textLength="314.938">(see Rs-Cn-understand-maintain-the-picture)</text></g><!--entity RS_identification--><g class="entity" data-qualified-name="RS_identification" id="ent0016" data-source-line="22"><rect x="171" y="2749.297" width="334.938" height="68.891" fill="#F1F1F1" style="stroke:#181818;stroke-width:1;stroke-dasharray:7,7;" rx="2.5" ry="2.5"/><text x="300.663" y="2772.292" fill="#000" font-size="14" textLength="75.612" font-style="italic">«External»</text><text x="181" y="2788.589" fill="#000" font-size="14" textLength="91.554">identification</text><text x="181" y="2804.886" fill="#000" font-size="14" textLength="314.938">(see Rs-Cn-understand-maintain-the-picture)</text></g><!--entity RS_identity--><g class="entity" data-qualified-name="RS_identity" id="ent0017" data-source-line="23"><rect x="171" y="796.297" width="334.938" height="68.891" fill="#F1F1F1" style="stroke:#181818;stroke-width:1;stroke-dasharray:7,7;" rx="2.5" ry="2.5"/><text x="300.663" y="819.292" fill="#000" font-size="14" textLength="75.612" font-style="italic">«External»</text><text x="181" y="835.589" fill="#000" font-size="14" textLength="53.416">identity</text><text x="181" y="851.886" fill="#000" font-size="14" textLength="314.938">(see Rs-Cn-understand-maintain-the-picture)</text></g><!--entity RS_ingest--><g class="entity" data-qualified-name="RS_ingest" id="ent0018" data-source-line="24"><rect x="204" y="883.297" width="268.657" height="68.891" fill="#F1F1F1" style="stroke:#181818;stroke-width:1;stroke-dasharray:7,7;" rx="2.5" ry="2.5"/><text x="300.522" y="906.292" fill="#000" font-size="14" textLength="75.612" font-style="italic">«External»</text><text x="214" y="922.589" fill="#000" font-size="14" textLength="43.046">ingest</text><text x="214" y="938.886" fill="#000" font-size="14" textLength="248.657">(see Rs-Cn-sense-ingest-normalize)</text></g><!--entity RS_intercept_service--><g class="entity" data-qualified-name="RS_intercept_service" id="ent0019" data-source-line="25"><rect x="231" y="970.297" width="215.446" height="68.891" fill="#F1F1F1" style="stroke:#181818;stroke-width:1;stroke-dasharray:7,7;" rx="2.5" ry="2.5"/><text x="300.917" y="993.292" fill="#000" font-size="14" textLength="75.612" font-style="italic">«External»</text><text x="241" y="1009.589" fill="#000" font-size="14" textLength="120.456">intercept_service</text><text x="241" y="1025.886" fill="#000" font-size="14" textLength="195.446">(see Rs-Cn-service-facades)</text></g><!--entity RS_mission--><g class="entity" data-qualified-name="RS_mission" id="ent0020" data-source-line="26"><rect x="241.5" y="1057.297" width="193.66" height="68.891" fill="#F1F1F1" style="stroke:#181818;stroke-width:1;stroke-dasharray:7,7;" rx="2.5" ry="2.5"/><text x="300.524" y="1080.292" fill="#000" font-size="14" textLength="75.612" font-style="italic">«External»</text><text x="251.5" y="1096.589" fill="#000" font-size="14" textLength="53.443">mission</text><text x="251.5" y="1112.886" fill="#000" font-size="14" textLength="173.66">(see Rs-Cn-foundational)</text></g><!--entity RS_model--><g class="entity" data-qualified-name="RS_model" id="ent0021" data-source-line="27"><rect x="796" y="637.297" width="229.836" height="68.891" fill="#F1F1F1" style="stroke:#181818;stroke-width:1;stroke-dasharray:7,7;" rx="2.5" ry="2.5"/><text x="873.112" y="660.292" fill="#000" font-size="14" textLength="75.612" font-style="italic">«External»</text><text x="806" y="676.589" fill="#000" font-size="14" textLength="43.593">model</text><text x="806" y="692.886" fill="#000" font-size="14" textLength="209.836">(see Rs-Cn-foundation-model)</text></g><!--entity RS_modelops--><g class="entity" data-qualified-name="RS_modelops" id="ent0022" data-source-line="28"><rect x="185.5" y="1183.297" width="305.852" height="68.891" fill="#F1F1F1" style="stroke:#181818;stroke-width:1;stroke-dasharray:7,7;" rx="2.5" ry="2.5"/><text x="300.62" y="1206.292" fill="#000" font-size="14" textLength="75.612" font-style="italic">«External»</text><text x="195.5" y="1222.589" fill="#000" font-size="14" textLength="68.339">modelops</text><text x="195.5" y="1238.886" fill="#000" font-size="14" textLength="285.852">(see Rs-Cn-assess-decide-govern-action)</text></g><!--entity RS_observability--><g class="entity" data-qualified-name="RS_observability" id="ent0023" data-source-line="29"><rect x="205" y="1270.297" width="267.413" height="68.891" fill="#F1F1F1" style="stroke:#181818;stroke-width:1;stroke-dasharray:7,7;" rx="2.5" ry="2.5"/><text x="300.9" y="1293.292" fill="#000" font-size="14" textLength="75.612" font-style="italic">«External»</text><text x="215" y="1309.589" fill="#000" font-size="14" textLength="90.31">observability</text><text x="215" y="1325.886" fill="#000" font-size="14" textLength="247.413">(see Rs-Cn-secure-operate-sustain)</text></g><!--entity RS_policy--><g class="entity" data-qualified-name="RS_policy" id="ent0024" data-source-line="30"><rect x="185.5" y="1357.297" width="305.852" height="68.891" fill="#F1F1F1" style="stroke:#181818;stroke-width:1;stroke-dasharray:7,7;" rx="2.5" ry="2.5"/><text x="300.62" y="1380.292" fill="#000" font-size="14" textLength="75.612" font-style="italic">«External»</text><text x="195.5" y="1396.589" fill="#000" font-size="14" textLength="41.214">policy</text><text x="195.5" y="1412.886" fill="#000" font-size="14" textLength="285.852">(see Rs-Cn-assess-decide-govern-action)</text></g><!--entity RS_remote--><g class="entity" data-qualified-name="RS_remote" id="ent0025" data-source-line="31"><rect x="244" y="1444.297" width="189.408" height="68.891" fill="#F1F1F1" style="stroke:#181818;stroke-width:1;stroke-dasharray:7,7;" rx="2.5" ry="2.5"/><text x="300.898" y="1467.292" fill="#000" font-size="14" textLength="75.612" font-style="italic">«External»</text><text x="254" y="1483.589" fill="#000" font-size="14" textLength="50.675">remote</text><text x="254" y="1499.886" fill="#000" font-size="14" textLength="169.408">(see Rs-Cn-deployment)</text></g><!--entity RS_render--><g class="entity" data-qualified-name="RS_render" id="ent0026" data-source-line="32"><rect x="229.5" y="1531.297" width="217.743" height="68.891" fill="#F1F1F1" style="stroke:#181818;stroke-width:1;stroke-dasharray:7,7;" rx="2.5" ry="2.5"/><text x="300.565" y="1554.292" fill="#000" font-size="14" textLength="75.612" font-style="italic">«External»</text><text x="239.5" y="1570.589" fill="#000" font-size="14" textLength="46.498">render</text><text x="239.5" y="1586.886" fill="#000" font-size="14" textLength="197.743">(see Rs-Cn-data-ecosystem)</text></g><!--entity RS_replay--><g class="entity" data-qualified-name="RS_replay" id="ent0027" data-source-line="33"><rect x="205" y="1618.297" width="267.413" height="68.891" fill="#F1F1F1" style="stroke:#181818;stroke-width:1;stroke-dasharray:7,7;" rx="2.5" ry="2.5"/><text x="300.9" y="1641.292" fill="#000" font-size="14" textLength="75.612" font-style="italic">«External»</text><text x="215" y="1657.589" fill="#000" font-size="14" textLength="44.01">replay</text><text x="215" y="1673.886" fill="#000" font-size="14" textLength="247.413">(see Rs-Cn-secure-operate-sustain)</text></g><!--entity RS_reporting--><g class="entity" data-qualified-name="RS_reporting" id="ent0028" data-source-line="34"><rect x="205" y="1705.297" width="267.413" height="68.891" fill="#F1F1F1" style="stroke:#181818;stroke-width:1;stroke-dasharray:7,7;" rx="2.5" ry="2.5"/><text x="300.9" y="1728.292" fill="#000" font-size="14" textLength="75.612" font-style="italic">«External»</text><text x="215" y="1744.589" fill="#000" font-size="14" textLength="64.716">reporting</text><text x="215" y="1760.886" fill="#000" font-size="14" textLength="247.413">(see Rs-Cn-secure-operate-sustain)</text></g><!--entity RS_resilience--><g class="entity" data-qualified-name="RS_resilience" id="ent0029" data-source-line="35"><rect x="205" y="1792.297" width="267.413" height="68.891" fill="#F1F1F1" style="stroke:#181818;stroke-width:1;stroke-dasharray:7,7;" rx="2.5" ry="2.5"/><text x="300.9" y="1815.292" fill="#000" font-size="14" textLength="75.612" font-style="italic">«External»</text><text x="215" y="1831.589" fill="#000" font-size="14" textLength="67.129">resilience</text><text x="215" y="1847.886" fill="#000" font-size="14" textLength="247.413">(see Rs-Cn-secure-operate-sustain)</text></g><!--entity RS_security--><g class="entity" data-qualified-name="RS_security" id="ent0030" data-source-line="36"><rect x="205" y="1879.297" width="267.413" height="68.891" fill="#F1F1F1" style="stroke:#181818;stroke-width:1;stroke-dasharray:7,7;" rx="2.5" ry="2.5"/><text x="300.9" y="1902.292" fill="#000" font-size="14" textLength="75.612" font-style="italic">«External»</text><text x="215" y="1918.589" fill="#000" font-size="14" textLength="55.897">security</text><text x="215" y="1934.886" fill="#000" font-size="14" textLength="247.413">(see Rs-Cn-secure-operate-sustain)</text></g><!--entity RS_sensor_management--><g class="entity" data-qualified-name="RS_sensor_management" id="ent0031" data-source-line="37"><rect x="204" y="1966.297" width="268.657" height="68.891" fill="#F1F1F1" style="stroke:#181818;stroke-width:1;stroke-dasharray:7,7;" rx="2.5" ry="2.5"/><text x="300.522" y="1989.292" fill="#000" font-size="14" textLength="75.612" font-style="italic">«External»</text><text x="214" y="2005.589" fill="#000" font-size="14" textLength="147.178">sensor_management</text><text x="214" y="2021.886" fill="#000" font-size="14" textLength="248.657">(see Rs-Cn-sense-ingest-normalize)</text></g><!--entity RS_sensor_sim--><g class="entity" data-qualified-name="RS_sensor_sim" id="ent0032" data-source-line="38"><rect x="239" y="2053.297" width="198.63" height="68.891" fill="#F1F1F1" style="stroke:#181818;stroke-width:1;stroke-dasharray:7,7;" rx="2.5" ry="2.5"/><text x="300.509" y="2076.292" fill="#000" font-size="14" textLength="75.612" font-style="italic">«External»</text><text x="249" y="2092.589" fill="#000" font-size="14" textLength="78.217">sensor_sim</text><text x="249" y="2108.886" fill="#000" font-size="14" textLength="178.63">(see Rs-Cn-tracking-core)</text></g><!--entity RS_store--><g class="entity" data-qualified-name="RS_store" id="ent0033" data-source-line="39"><rect x="241.5" y="2140.297" width="193.66" height="68.891" fill="#F1F1F1" style="stroke:#181818;stroke-width:1;stroke-dasharray:7,7;" rx="2.5" ry="2.5"/><text x="300.524" y="2163.292" fill="#000" font-size="14" textLength="75.612" font-style="italic">«External»</text><text x="251.5" y="2179.589" fill="#000" font-size="14" textLength="35.718">store</text><text x="251.5" y="2195.886" fill="#000" font-size="14" textLength="173.66">(see Rs-Cn-foundational)</text></g><!--entity RS_time--><g class="entity" data-qualified-name="RS_time" id="ent0034" data-source-line="40"><rect x="204" y="2227.297" width="268.657" height="68.891" fill="#F1F1F1" style="stroke:#181818;stroke-width:1;stroke-dasharray:7,7;" rx="2.5" ry="2.5"/><text x="300.522" y="2250.292" fill="#000" font-size="14" textLength="75.612" font-style="italic">«External»</text><text x="214" y="2266.589" fill="#000" font-size="14" textLength="31.63">time</text><text x="214" y="2282.886" fill="#000" font-size="14" textLength="248.657">(see Rs-Cn-sense-ingest-normalize)</text></g><!--entity RS_tracking_service--><g class="entity" data-qualified-name="RS_tracking_service" id="ent0035" data-source-line="41"><rect x="231" y="2314.297" width="215.446" height="68.891" fill="#F1F1F1" style="stroke:#181818;stroke-width:1;stroke-dasharray:7,7;" rx="2.5" ry="2.5"/><text x="300.917" y="2337.292" fill="#000" font-size="14" textLength="75.612" font-style="italic">«External»</text><text x="241" y="2353.589" fill="#000" font-size="14" textLength="114.427">tracking_service</text><text x="241" y="2369.886" fill="#000" font-size="14" textLength="195.446">(see Rs-Cn-service-facades)</text></g><!--entity RS_workflow--><g class="entity" data-qualified-name="RS_workflow" id="ent0036" data-source-line="42"><rect x="205" y="2401.297" width="267.413" height="68.891" fill="#F1F1F1" style="stroke:#181818;stroke-width:1;stroke-dasharray:7,7;" rx="2.5" ry="2.5"/><text x="300.9" y="2424.292" fill="#000" font-size="14" textLength="75.612" font-style="italic">«External»</text><text x="215" y="2440.589" fill="#000" font-size="14" textLength="62.713">workflow</text><text x="215" y="2456.886" fill="#000" font-size="14" textLength="247.413">(see Rs-Cn-secure-operate-sustain)</text></g><!--entity RS_app--><g class="entity" data-qualified-name="User interface.RS_app" id="ent0002" data-source-line="7"><rect x="30" y="710.297" width="105.442" height="52.594" fill="#F1F1F1" style="stroke:#181818;stroke-width:0.5;" rx="2.5" ry="2.5"/><text x="51.587" y="733.292" fill="#000" font-size="14" textLength="62.269" font-style="italic">«Binary»</text><text x="40" y="749.589" fill="#000" font-size="14" textLength="85.442">gungnir-app</text></g><!--entity RS_ui--><g class="entity" data-qualified-name="User interface.RS_ui" id="ent0003" data-source-line="8"><rect x="599" y="700.297" width="104.421" height="52.594" fill="#F1F1F1" style="stroke:#181818;stroke-width:0.5;" rx="2.5" ry="2.5"/><text x="610" y="723.292" fill="#000" font-size="14" textLength="82.421" font-style="italic">«Resource»</text><text x="615.284" y="739.589" fill="#000" font-size="14" textLength="71.853">gungnir-ui</text></g><!--entity RS_viewport3d--><g class="entity" data-qualified-name="User interface.RS_viewport3d" id="ent0004" data-source-line="9"><rect x="259.5" y="690.297" width="157.819" height="52.594" fill="#F1F1F1" style="stroke:#181818;stroke-width:0.5;" rx="2.5" ry="2.5"/><text x="297.199" y="713.292" fill="#000" font-size="14" textLength="82.421" font-style="italic">«Resource»</text><text x="269.5" y="729.589" fill="#000" font-size="14" textLength="137.819">gungnir-viewport3d</text></g><g class="link" data-entity-1="ent0002" data-entity-2="ent0010" id="lnk37" data-link-type="dependency"><polygon points="238.797,268.417,229.042,267.056,233.991,269.797,231.25,274.745,238.797,268.417" fill="#181818" style="stroke:#181818;stroke-width:1;stroke-linejoin:miter;stroke-miterlimit:10;"/><path d="M85.387,710.131 C91.881,625.767 116.004,366.707 171,306.797 C188.728,287.485 208.83,277.02 233.991,269.797" style="stroke:#181818;stroke-width:1;" fill="none"/></g><g class="link" data-entity-1="ent0002" data-entity-2="ent0032" id="lnk38" data-link-type="dependency"><polygon points="238.601,2082.779,230.801,2076.766,233.742,2081.598,228.911,2084.54,238.601,2082.779" fill="#181818" style="stroke:#181818;stroke-width:1;stroke-linejoin:miter;stroke-miterlimit:10;"/><path d="M83.443,763.53 C83.302,940.788 86.274,1942.647 171,2044.797 C187.868,2065.133 208.113,2075.367 233.742,2081.598" style="stroke:#181818;stroke-width:1;" fill="none"/></g><g class="link" data-entity-1="ent0002" data-entity-2="ent0035" id="lnk39" data-link-type="dependency"><polygon points="230.661,2341.833,223.121,2335.498,225.857,2340.449,220.906,2343.185,230.661,2341.833" fill="#181818" style="stroke:#181818;stroke-width:1;stroke-linejoin:miter;stroke-miterlimit:10;"/><path d="M84.099,763.529 C88.73,965.366 120.018,2243.632 171,2305.797 C186.051,2324.149 203.006,2333.865 225.857,2340.449" style="stroke:#181818;stroke-width:1;" fill="none"/></g><g class="link" data-entity-1="ent0002" data-entity-2="ent0019" id="lnk40" data-link-type="dependency"><polygon points="230.604,993.007,223.132,986.59,225.814,991.571,220.834,994.253,230.604,993.007" fill="#181818" style="stroke:#181818;stroke-width:1;stroke-linejoin:miter;stroke-miterlimit:10;"/><path d="M86.077,763.405 C92.103,810.588 111.464,908.91 171,961.797 C187.74,976.667 204.173,985.079 225.814,991.571" style="stroke:#181818;stroke-width:1;" fill="none"/></g><g class="link" data-entity-1="ent0002" data-entity-2="ent0025" id="lnk41" data-link-type="dependency"><polygon points="243.689,1474.154,235.769,1468.299,238.808,1473.07,234.036,1476.109,243.689,1474.154" fill="#181818" style="stroke:#181818;stroke-width:1;stroke-linejoin:miter;stroke-miterlimit:10;"/><path d="M82.998,763.543 C81.389,878.992 80.95,1333.393 171,1435.797 C189.433,1456.759 211.731,1467.062 238.808,1473.07" style="stroke:#181818;stroke-width:1;" fill="none"/></g><g class="link" data-entity-1="ent0002" data-entity-2="ent0029" id="lnk42" data-link-type="dependency"><polygon points="204.664,1809.459,198.381,1801.875,200.186,1807.236,194.824,1809.041,204.664,1809.459" fill="#181818" style="stroke:#181818;stroke-width:1;stroke-linejoin:miter;stroke-miterlimit:10;"/><path d="M83.914,763.501 C86.562,918.984 103.228,1703.453 171,1783.797 C180.24,1794.751 187.389,1800.886 200.186,1807.236" style="stroke:#181818;stroke-width:1;" fill="none"/></g><g class="link" data-entity-1="ent0002" data-entity-2="ent0016" id="lnk43" data-link-type="dependency"><polygon points="178.848,2749.27,175.07,2740.175,175.22,2745.83,169.565,2745.98,178.848,2749.27" fill="#181818" style="stroke:#181818;stroke-width:1;stroke-linejoin:miter;stroke-miterlimit:10;"/><path d="M83.766,763.565 C86.181,995.634 105.752,2660.25 171,2740.797 C173.443,2743.813 172.439,2743.192 175.22,2745.83" style="stroke:#181818;stroke-width:1;" fill="none"/></g><g class="link" data-entity-1="ent0002" data-entity-2="ent0017" id="lnk44" data-link-type="dependency"><polygon points="204.826,796.197,197.563,789.545,200.085,794.609,195.022,797.131,204.826,796.197" fill="#181818" style="stroke:#181818;stroke-width:1;stroke-linejoin:miter;stroke-miterlimit:10;"/><path d="M128.461,763.364 C141.86,770.615 156.771,778.047 171,783.797 C181.861,788.186 188.536,790.74 200.085,794.609" style="stroke:#181818;stroke-width:1;" fill="none"/></g><g class="link" data-entity-1="ent0002" data-entity-2="ent0011" id="lnk45" data-link-type="dependency"><polygon points="618.683,455.21,615.154,446.014,615.15,451.671,609.493,451.667,618.683,455.21" fill="#181818" style="stroke:#181818;stroke-width:1;stroke-linejoin:miter;stroke-miterlimit:10;"/><path d="M85.829,710.219 C93.084,634.326 118.03,419.407 171,377.797 C229.542,331.81 435.585,353.637 506,377.797 C550.487,393.061 588.284,424.765 615.15,451.671" style="stroke:#181818;stroke-width:1;" fill="none"/></g><g class="link" data-entity-1="ent0002" data-entity-2="ent0012" id="lnk46" data-link-type="dependency"><polygon points="627.588,1027.358,619.103,1032.36,624.683,1031.428,625.614,1037.008,627.588,1027.358" fill="#181818" style="stroke:#181818;stroke-width:1;stroke-linejoin:miter;stroke-miterlimit:10;"/><path d="M85.135,763.352 C90.758,844.823 112.29,1088.567 171,1135.797 C229.005,1182.46 437.173,1164.166 506,1135.797 C558.933,1113.979 599.783,1066.311 624.683,1031.428" style="stroke:#181818;stroke-width:1;" fill="none"/></g><g class="link" data-entity-1="ent0002" data-entity-2="ent0026" id="lnk47" data-link-type="dependency"><polygon points="229.22,1557.599,221.748,1551.182,224.431,1556.162,219.45,1558.845,229.22,1557.599" fill="#181818" style="stroke:#181818;stroke-width:1;stroke-linejoin:miter;stroke-miterlimit:10;"/><path d="M84.689,763.363 C90.764,893.972 120.059,1464.063 171,1522.797 C186.062,1540.163 202.337,1549.536 224.431,1556.162" style="stroke:#181818;stroke-width:1;" fill="none"/></g><g class="link" data-entity-1="ent0002" data-entity-2="ent0004" id="lnk48" data-link-type="dependency"><polygon points="259.323,722.953,250.037,719.671,254.339,723.345,250.665,727.647,259.323,722.953" fill="#181818" style="stroke:#181818;stroke-width:1;stroke-linejoin:miter;stroke-miterlimit:10;"/><path d="M135.207,732.725 C170.889,729.916 213.998,726.521 254.339,723.345" style="stroke:#181818;stroke-width:1;" fill="none"/></g><g class="link" data-entity-1="ent0002" data-entity-2="ent0003" id="lnk49" data-link-type="dependency"><polygon points="598.985,738.301,589.366,736.183,594.086,739.302,590.967,744.022,598.985,738.301" fill="#181818" style="stroke:#181818;stroke-width:1;stroke-linejoin:miter;stroke-miterlimit:10;"/><path d="M135.107,747.832 C146.851,749.896 159.311,751.737 171,752.797 C319.281,766.242 357.705,766.077 506,752.797 C537.123,750.01 566.682,744.899 594.086,739.302" style="stroke:#181818;stroke-width:1;" fill="none"/></g><g class="link" data-entity-1="ent0002" data-entity-2="ent0021" id="lnk50" data-link-type="dependency"><polygon points="895.365,636.99,895.285,627.141,893.297,632.437,888.001,630.45,895.365,636.99" fill="#181818" style="stroke:#181818;stroke-width:1;stroke-linejoin:miter;stroke-miterlimit:10;"/><path d="M85.344,710.255 C91.483,630.584 114.155,396.199 171,350.797 C274.594,268.057 656.194,363.324 760,445.797 C826,498.233 870.971,583.281 893.297,632.437" style="stroke:#181818;stroke-width:1;" fill="none"/></g><g class="link" data-entity-1="ent0002" data-entity-2="ent0009" id="lnk51" data-link-type="dependency"><polygon points="241.168,176.605,231.487,174.794,236.304,177.761,233.337,182.577,241.168,176.605" fill="#181818" style="stroke:#181818;stroke-width:1;stroke-linejoin:miter;stroke-miterlimit:10;"/><path d="M84.241,710.207 C87.456,614.265 103.274,287.685 171,213.797 C189.156,193.99 210.26,183.951 236.304,177.761" style="stroke:#181818;stroke-width:1;" fill="none"/></g><g class="link" data-entity-1="ent0002" data-entity-2="ent0020" id="lnk52" data-link-type="dependency"><polygon points="241.179,1084.406,233.391,1078.376,236.323,1083.214,231.485,1086.146,241.179,1084.406" fill="#181818" style="stroke:#181818;stroke-width:1;stroke-linejoin:miter;stroke-miterlimit:10;"/><path d="M82.693,763.302 C82.389,823.191 90.422,969.869 171,1048.797 C189.875,1067.285 210.742,1076.938 236.323,1083.214" style="stroke:#181818;stroke-width:1;" fill="none"/></g><g class="link" data-entity-1="ent0002" data-entity-2="ent0014" id="lnk53" data-link-type="dependency"><polygon points="241.395,2605.698,233.502,2599.808,236.519,2604.593,231.734,2607.61,241.395,2605.698" fill="#181818" style="stroke:#181818;stroke-width:1;stroke-linejoin:miter;stroke-miterlimit:10;"/><path d="M83.881,763.632 C87.128,984.328 111.473,2493.623 171,2566.797 C188.333,2588.103 209.835,2598.544 236.519,2604.593" style="stroke:#181818;stroke-width:1;" fill="none"/></g><g class="link" data-entity-1="ent0002" data-entity-2="ent0033" id="lnk54" data-link-type="dependency"><polygon points="241.155,2170.44,233.276,2164.53,236.281,2169.323,231.488,2172.328,241.155,2170.44" fill="#181818" style="stroke:#181818;stroke-width:1;stroke-linejoin:miter;stroke-miterlimit:10;"/><path d="M83.325,763.508 C82.355,947.448 80.6,2022.344 171,2131.797 C188.396,2152.859 209.753,2163.241 236.281,2169.323" style="stroke:#181818;stroke-width:1;" fill="none"/></g><g class="link" data-entity-1="ent0002" data-entity-2="ent0034" id="lnk55" data-link-type="dependency"><polygon points="203.603,2244.278,197.403,2236.626,199.149,2242.007,193.768,2243.753,203.603,2244.278" fill="#181818" style="stroke:#181818;stroke-width:1;stroke-linejoin:miter;stroke-miterlimit:10;"/><path d="M84.19,763.586 C89.339,959.096 122.868,2160.303 171,2218.797 C179.916,2229.632 186.715,2235.667 199.149,2242.007" style="stroke:#181818;stroke-width:1;" fill="none"/></g><g class="link" data-entity-1="ent0002" data-entity-2="ent0018" id="lnk56" data-link-type="dependency"><polygon points="203.805,893.178,197.131,885.936,199.216,891.194,193.957,893.279,203.805,893.178" fill="#181818" style="stroke:#181818;stroke-width:1;stroke-linejoin:miter;stroke-miterlimit:10;"/><path d="M93.289,763.446 C106.218,794.873 132.01,846.415 171,874.797 C181.017,882.088 187.572,886.162 199.216,891.194" style="stroke:#181818;stroke-width:1;" fill="none"/></g><g class="link" data-entity-1="ent0002" data-entity-2="ent0023" id="lnk57" data-link-type="dependency"><polygon points="204.728,1286.302,198.39,1278.763,200.233,1284.111,194.885,1285.954,204.728,1286.302" fill="#181818" style="stroke:#181818;stroke-width:1;stroke-linejoin:miter;stroke-miterlimit:10;"/><path d="M84.225,763.487 C87.387,859.793 103.045,1187.613 171,1261.797 C180.478,1272.144 187.594,1277.95 200.233,1284.111" style="stroke:#181818;stroke-width:1;" fill="none"/></g><g class="link" data-entity-1="ent0002" data-entity-2="ent0036" id="lnk58" data-link-type="dependency"><polygon points="204.729,2418.935,198.457,2411.342,200.253,2416.706,194.89,2418.502,204.729,2418.935" fill="#181818" style="stroke:#181818;stroke-width:1;stroke-linejoin:miter;stroke-miterlimit:10;"/><path d="M84.014,763.34 C88.146,970.867 117.153,2326.943 171,2392.797 C180.166,2404.006 187.359,2410.282 200.253,2416.706" style="stroke:#181818;stroke-width:1;" fill="none"/></g><g class="link" data-entity-1="ent0002" data-entity-2="ent0030" id="lnk59" data-link-type="dependency"><polygon points="204.995,1896.715,198.693,1889.146,200.511,1894.503,195.154,1896.32,204.995,1896.715" fill="#181818" style="stroke:#181818;stroke-width:1;stroke-linejoin:miter;stroke-miterlimit:10;"/><path d="M83.731,763.298 C85.383,925.775 97.555,1783.162 171,1870.797 C180.301,1881.894 187.569,1888.118 200.511,1894.503" style="stroke:#181818;stroke-width:1;" fill="none"/></g><g class="link" data-entity-1="ent0002" data-entity-2="ent0024" id="lnk60" data-link-type="dependency"><polygon points="185.457,1361.962,180.642,1353.371,181.452,1358.969,175.853,1359.779,185.457,1361.962" fill="#181818" style="stroke:#181818;stroke-width:1;stroke-linejoin:miter;stroke-miterlimit:10;"/><path d="M83.526,763.391 C84.181,869.422 91.995,1260.522 171,1348.797 C175.38,1353.691 176.232,1355.068 181.452,1358.969" style="stroke:#181818;stroke-width:1;" fill="none"/></g><g class="link" data-entity-1="ent0002" data-entity-2="ent0008" id="lnk61" data-link-type="dependency"><polygon points="185.459,113.634,175.855,115.816,181.454,116.626,180.644,122.225,185.459,113.634" fill="#181818" style="stroke:#181818;stroke-width:1;stroke-linejoin:miter;stroke-miterlimit:10;"/><path d="M83.54,710.289 C84.245,604.601 92.228,214.771 171,126.797 C175.381,121.904 176.234,120.527 181.454,116.626" style="stroke:#181818;stroke-width:1;" fill="none"/></g><g class="link" data-entity-1="ent0002" data-entity-2="ent0015" id="lnk62" data-link-type="dependency"><polygon points="178.856,2662.264,175.071,2653.171,175.225,2658.826,169.57,2658.98,178.856,2662.264" fill="#181818" style="stroke:#181818;stroke-width:1;stroke-linejoin:miter;stroke-miterlimit:10;"/><path d="M83.819,763.463 C86.634,989.416 108.601,2576.923 171,2653.797 C173.446,2656.81 172.442,2656.191 175.225,2658.826" style="stroke:#181818;stroke-width:1;" fill="none"/></g><g class="link" data-entity-1="ent0002" data-entity-2="ent0006" id="lnk63" data-link-type="dependency"><polygon points="185.239,542.538,175.489,543.931,181.003,545.194,179.74,550.708,185.239,542.538" fill="#181818" style="stroke:#181818;stroke-width:1;stroke-linejoin:miter;stroke-miterlimit:10;"/><path d="M88.711,710.198 C98.005,669.979 121.321,594.019 171,552.797 C175.487,549.074 176.02,548.319 181.003,545.194" style="stroke:#181818;stroke-width:1;" fill="none"/></g><g class="link" data-entity-1="ent0002" data-entity-2="ent0031" id="lnk64" data-link-type="dependency"><polygon points="203.739,1983.166,197.522,1975.527,199.28,1980.904,193.903,1982.662,203.739,1983.166" fill="#181818" style="stroke:#181818;stroke-width:1;stroke-linejoin:miter;stroke-miterlimit:10;"/><path d="M83.577,763.376 C84.307,933.254 91.913,1862.904 171,1957.797 C179.984,1968.576 186.822,1974.584 199.28,1980.904" style="stroke:#181818;stroke-width:1;" fill="none"/></g><g class="link" data-entity-1="ent0002" data-entity-2="ent0005" id="lnk65" data-link-type="dependency"><polygon points="180.95,456.469,171.342,458.635,176.939,459.455,176.119,465.052,180.95,456.469" fill="#181818" style="stroke:#181818;stroke-width:1;stroke-linejoin:miter;stroke-miterlimit:10;"/><path d="M84.01,709.97 C86.554,655.508 100.269,531.507 171,464.797 C174.149,461.827 173.465,462.041 176.939,459.455" style="stroke:#181818;stroke-width:1;" fill="none"/></g><g class="link" data-entity-1="ent0002" data-entity-2="ent0007" id="lnk66" data-link-type="dependency"><polygon points="194.462,630.417,184.613,630.526,189.915,632.498,187.943,637.8,194.462,630.417" fill="#181818" style="stroke:#181818;stroke-width:1;stroke-linejoin:miter;stroke-miterlimit:10;"/><path d="M102.042,709.904 C117.993,688.723 142.837,659.992 171,642.797 C178.434,638.258 181.774,636.225 189.915,632.498" style="stroke:#181818;stroke-width:1;" fill="none"/></g><g class="link" data-entity-1="ent0002" data-entity-2="ent0022" id="lnk67" data-link-type="dependency"><polygon points="187.159,1183.139,182.24,1174.607,183.118,1180.195,177.53,1181.073,187.159,1183.139" fill="#181818" style="stroke:#181818;stroke-width:1;stroke-linejoin:miter;stroke-miterlimit:10;"/><path d="M85.369,763.585 C91.808,848.339 115.785,1108.595 171,1168.797 C175.888,1174.126 177.282,1175.943 183.118,1180.195" style="stroke:#181818;stroke-width:1;" fill="none"/></g><g class="link" data-entity-1="ent0002" data-entity-2="ent0013" id="lnk68" data-link-type="dependency"><polygon points="185.228,2493.728,180.641,2485.012,181.303,2490.63,175.685,2491.292,185.228,2493.728" fill="#181818" style="stroke:#181818;stroke-width:1;stroke-linejoin:miter;stroke-miterlimit:10;"/><path d="M83.943,763.363 C87.614,977.11 114.304,2410.272 171,2479.797 C175.245,2485.003 176.106,2486.528 181.303,2490.63" style="stroke:#181818;stroke-width:1;" fill="none"/></g><g class="link" data-entity-1="ent0002" data-entity-2="ent0027" id="lnk69" data-link-type="dependency"><polygon points="204.843,1635.307,198.539,1627.74,200.358,1633.096,195.002,1634.916,204.843,1635.307" fill="#181818" style="stroke:#181818;stroke-width:1;stroke-linejoin:miter;stroke-miterlimit:10;"/><path d="M84.383,763.478 C89.229,902.906 114.473,1543.895 171,1609.797 C180.33,1620.674 187.53,1626.773 200.358,1633.096" style="stroke:#181818;stroke-width:1;" fill="none"/></g><g class="link" data-entity-1="ent0002" data-entity-2="ent0028" id="lnk70" data-link-type="dependency"><polygon points="204.746,1722.39,198.453,1714.814,200.264,1720.173,194.905,1721.984,204.746,1722.39" fill="#181818" style="stroke:#181818;stroke-width:1;stroke-linejoin:miter;stroke-miterlimit:10;"/><path d="M84.132,763.658 C87.849,911.667 108.881,1623.713 171,1696.797 C180.281,1707.716 187.453,1713.835 200.264,1720.173" style="stroke:#181818;stroke-width:1;" fill="none"/></g><g class="link" data-entity-1="ent0003" data-entity-2="ent0021" id="lnk71" data-link-type="dependency"><polygon points="795.869,696.127,786.232,694.092,790.978,697.17,787.9,701.916,795.869,696.127" fill="#181818" style="stroke:#181818;stroke-width:1;stroke-linejoin:miter;stroke-miterlimit:10;"/><path d="M703.281,715.865 C729.88,710.195 758.617,704.069 790.978,697.17" style="stroke:#181818;stroke-width:1;" fill="none"/></g><g class="link" data-entity-1="ent0004" data-entity-2="ent0011" id="lnk72" data-link-type="dependency"><polygon points="623.265,524.353,614.478,528.802,620.106,528.229,620.679,533.857,623.265,524.353" fill="#181818" style="stroke:#181818;stroke-width:1;stroke-linejoin:miter;stroke-miterlimit:10;"/><path d="M411.95,690.252 C442.409,677.369 477.348,660.23 506,639.797 C552.438,606.68 593.248,561.179 620.106,528.229" style="stroke:#181818;stroke-width:1;" fill="none"/></g><g class="link" data-entity-1="ent0004" data-entity-2="ent0012" id="lnk73" data-link-type="dependency"><polygon points="633.441,958.218,632.889,948.385,631.157,953.77,625.772,952.039,633.441,958.218" fill="#181818" style="stroke:#181818;stroke-width:1;stroke-linejoin:miter;stroke-miterlimit:10;"/><path d="M417.762,739.926 C447.431,751.205 480.237,766.931 506,787.797 C564.978,835.564 608.176,909.013 631.157,953.77" style="stroke:#181818;stroke-width:1;" fill="none"/></g><g class="link" data-entity-1="ent0004" data-entity-2="ent0021" id="lnk74" data-link-type="dependency"><polygon points="795.889,675.981,786.723,672.376,790.894,676.198,787.071,680.368,795.889,675.981" fill="#181818" style="stroke:#181818;stroke-width:1;stroke-linejoin:miter;stroke-miterlimit:10;"/><path d="M417.74,705.868 C455.264,700.952 500.894,695.447 542,691.797 C626.923,684.256 718.147,679.364 790.894,676.198" style="stroke:#181818;stroke-width:1;" fill="none"/></g><g class="link" data-entity-1="ent0004" data-entity-2="ent0003" id="lnk75" data-link-type="dependency"><polygon points="598.945,725.153,590.078,720.865,593.947,724.992,589.821,728.861,598.945,725.153" fill="#181818" style="stroke:#181818;stroke-width:1;stroke-linejoin:miter;stroke-miterlimit:10;"/><path d="M417.852,719.32 C474.623,721.149 544.75,723.407 593.947,724.992" style="stroke:#181818;stroke-width:1;" fill="none"/></g><?plantuml-src fLTDRzim3BtdLsZPfJsebzs68eSL-mCjTXiGg3Rj2BK-8Cdfl67_VPG_4bjA6xex57KellSaafAe84C3xD7p1yqSUDEw0bXXj8OYoACCtLVsmuDZKWTmbS31cyePnHw4gyrTCAgvtNooJjHAi4PqfWtCAmX2Yur_aTeA9nJoAMiqwF0KEbHpo2rqtS3CfP4QGcU16HSEPjD05LWmpCdw45Wf8qGQlR6YU14riEroKblsPyFECcnRjxhMqd5XxPO9pnwVzlZ9xk-_IIrSjzjTTc_bvDrAT7uS0_AM-r72gyK9VoadsDcoXF_TpE0OdAOBil0_zOs7CVgyrIKuZu4fkHAuClpZuG3SoYAq3cvFwvZGgF3z5mO0V-zsx7ECu5qf_07AXPYrpXn5iz0IteFtl8H2bi1hSqGMBleGtyxYrGE9CZsZmk_rGYSeJGe_5KPfjSw8euheIjOBZSfWYaIa5CsCDFfHEOrRJZiuh6UfQrwOMOPxFnebpaSi6AE1Gs5yvmEe4sKqqndtLUjncLJYqPt8ZodAo2dfcu0q6JZYFupizGnEdZJU6io7TYtYQ08O09nE9Oj-dX_IMbAiaGtTVmY6ZYYbQ_3BOyA3zi270QwDKwAHlsVy_G2L7LqAi66FDyHH5f08zJQEbuOemSyK4XHDJ4cVrVB58XiTYQocXEODJjuFdddZhnMinlhL6sy2qcJCSuoWU9PDMaqU2YmQRYmu4O3xriU2EiaiW3GjQnfPTAiNDC1e4WwK2SiQAi4sfeltrObnyA8onbr5ELi7JoghnVPhJRm719aTcvhqEBqkC82e6XvJ3phRiLT49XHDfQTRMPaJXggWlN5xR3MmKSqQeYidNGPUfUcb8hGNPsSYUK3qzIEkTwCn1gbWJLIYFv5vNF6gmpy5qQHUZNkf6lEwff8cp3iAuqk5yzsf5Kniv_mb0-awak7iZal6XqCiCqxxAsLRD1aN1qENcECvTy4qze-PSZpz4kFvVPKCj38nzBTM5itOhAUEmzMSMAUkC8rzBF8qx5YTMQXZ9IV6nGMNZ4s5aQLwE7aIyt21POlhdpU95VlEn3AzwovNrVdaIM7JipErdrvlbnA0RKEQyB6Dpx8TRwFSEDmWc-55dgPszjfEAkpooApGSeTtM5lv3m00?></g></svg>