<svg xmlns="http://www.w3.org/2000/svg" xmlns:xlink="http://www.w3.org/1999/xlink" version="1.1" data-diagram-type="DESCRIPTION" style="width:1435px;height:487px;background:#FFFFFF;" width="1435px" height="487px" viewBox="0 0 1435 487" zoomAndPan="magnify" preserveAspectRatio="none" contentStyleType="text/css"><?plantuml 1.2026.8?><defs/><g font-family="sans-serif" lengthAdjust="spacing"><g class="title" data-source-line="1"><text x="471.102" y="22.995" fill="#000" font-size="14" textLength="485.796" font-weight="700">Rs-Cn resource connectivity: Tracking core (from Cargo.toml)</text></g><!--cluster Tracking core--><g class="cluster" data-qualified-name="Tracking core" id="ent0001" data-source-line="6"><path d="M16.5,46.4 L124.988,46.4 A3.75,3.75 0 0 1 127.488,48.9 L134.488,68.697 L1424.5,68.697 A2.5,2.5 0 0 1 1427,71.197 L1427,460.9 A2.5,2.5 0 0 1 1424.5,463.4 L16.5,463.4 A2.5,2.5 0 0 1 14,460.9 L14,48.9 A2.5,2.5 0 0 1 16.5,46.4" style="stroke:#000;stroke-width:1.5;" fill="none"/><line x1="14" y1="68.697" x2="134.488" y2="68.697" style="stroke:#000;stroke-width:1.5;"/><text x="18" y="61.395" fill="#000" font-size="14" textLength="107.488" font-weight="700">Tracking core</text></g><!--entity RS_allocation--><g class="entity" data-qualified-name="Tracking core.RS_allocation" id="ent0002" data-source-line="7"><rect x="1109" y="89.9" width="147.107" height="52.594" fill="#F1F1F1" style="stroke:#181818;stroke-width:0.5;" rx="2.5" ry="2.5"/><text x="1141.343" y="112.895" fill="#000" font-size="14" textLength="82.421" font-style="italic">«Resource»</text><text x="1119" y="129.192" fill="#000" font-size="14" textLength="127.107">gungnir-allocation</text></g><!--entity RS_association--><g class="entity" data-qualified-name="Tracking core.RS_association" id="ent0003" data-source-line="8"><rect x="915" y="241.9" width="157.806" height="52.594" fill="#F1F1F1" style="stroke:#181818;stroke-width:0.5;" rx="2.5" ry="2.5"/><text x="952.692" y="264.895" fill="#000" font-size="14" textLength="82.421" font-style="italic">«Resource»</text><text x="925" y="281.192" fill="#000" font-size="14" textLength="137.806">gungnir-association</text></g><!--entity RS_coord--><g class="entity" data-qualified-name="Tracking core.RS_coord" id="ent0004" data-source-line="9"><rect x="1292" y="333.9" width="118.561" height="52.594" fill="#F1F1F1" style="stroke:#181818;stroke-width:0.5;" rx="2.5" ry="2.5"/><text x="1310.07" y="356.895" fill="#000" font-size="14" textLength="82.421" font-style="italic">«Resource»</text><text x="1302" y="373.192" fill="#000" font-size="14" textLength="98.561">gungnir-coord</text></g><!--entity RS_core--><g class="entity" data-qualified-name="Tracking core.RS_core" id="ent0005" data-source-line="10"><rect x="1296.5" y="155.9" width="109.722" height="52.594" fill="#F1F1F1" style="stroke:#181818;stroke-width:0.5;" rx="2.5" ry="2.5"/><text x="1310.15" y="178.895" fill="#000" font-size="14" textLength="82.421" font-style="italic">«Resource»</text><text x="1306.5" y="195.192" fill="#000" font-size="14" textLength="89.722">gungnir-core</text></g><!--entity RS_filters--><g class="entity" data-qualified-name="Tracking core.RS_filters" id="ent0006" data-source-line="11"><rect x="1123" y="287.9" width="118.95" height="52.594" fill="#F1F1F1" style="stroke:#181818;stroke-width:0.5;" rx="2.5" ry="2.5"/><text x="1141.265" y="310.895" fill="#000" font-size="14" textLength="82.421" font-style="italic">«Resource»</text><text x="1133" y="327.192" fill="#000" font-size="14" textLength="98.95">gungnir-filters</text></g><!--entity RS_fusion_async--><g class="entity" data-qualified-name="Tracking core.RS_fusion_async" id="ent0007" data-source-line="12"><rect x="363" y="261.9" width="167.294" height="52.594" fill="#F1F1F1" style="stroke:#181818;stroke-width:0.5;" rx="2.5" ry="2.5"/><text x="405.437" y="284.895" fill="#000" font-size="14" textLength="82.421" font-style="italic">«Resource»</text><text x="373" y="301.192" fill="#000" font-size="14" textLength="147.294">gungnir-fusion-async</text></g><!--entity RS_metrics--><g class="entity" data-qualified-name="Tracking core.RS_metrics" id="ent0008" data-source-line="13"><rect x="581.5" y="221.9" width="131.467" height="52.594" fill="#F1F1F1" style="stroke:#181818;stroke-width:0.5;" rx="2.5" ry="2.5"/><text x="606.023" y="244.895" fill="#000" font-size="14" textLength="82.421" font-style="italic">«Resource»</text><text x="591.5" y="261.192" fill="#000" font-size="14" textLength="111.467">gungnir-metrics</text></g><!--entity RS_oracle--><g class="entity" data-qualified-name="Tracking core.RS_oracle" id="ent0009" data-source-line="14"><rect x="30.5" y="311.9" width="122.19" height="52.594" fill="#F1F1F1" style="stroke:#181818;stroke-width:0.5;" rx="2.5" ry="2.5"/><text x="50.385" y="334.895" fill="#000" font-size="14" textLength="82.421" font-style="italic">«Resource»</text><text x="40.5" y="351.192" fill="#000" font-size="14" textLength="102.19">gungnir-oracle</text></g><!--entity RS_rfs--><g class="entity" data-qualified-name="Tracking core.RS_rfs" id="ent0010" data-source-line="15"><rect x="595" y="129.9" width="104.421" height="52.594" fill="#F1F1F1" style="stroke:#181818;stroke-width:0.5;" rx="2.5" ry="2.5"/><text x="606" y="152.895" fill="#000" font-size="14" textLength="82.421" font-style="italic">«Resource»</text><text x="608.676" y="169.192" fill="#000" font-size="14" textLength="77.068">gungnir-rfs</text></g><!--entity RS_scenario--><g class="entity" data-qualified-name="Tracking core.RS_scenario" id="ent0011" data-source-line="16"><rect x="189" y="307.9" width="138.357" height="52.594" fill="#F1F1F1" style="stroke:#181818;stroke-width:0.5;" rx="2.5" ry="2.5"/><text x="216.968" y="330.895" fill="#000" font-size="14" textLength="82.421" font-style="italic">«Resource»</text><text x="199" y="347.192" fill="#000" font-size="14" textLength="118.357">gungnir-scenario</text></g><!--entity RS_sensor_sim--><g class="entity" data-qualified-name="Tracking core.RS_sensor_sim" id="ent0012" data-source-line="17"><rect x="369" y="353.9" width="155.358" height="52.594" fill="#F1F1F1" style="stroke:#181818;stroke-width:0.5;" rx="2.5" ry="2.5"/><text x="405.469" y="376.895" fill="#000" font-size="14" textLength="82.421" font-style="italic">«Resource»</text><text x="379" y="393.192" fill="#000" font-size="14" textLength="135.358">gungnir-sensor-sim</text></g><!--entity RS_testkit--><g class="entity" data-qualified-name="Tracking core.RS_testkit" id="ent0013" data-source-line="18"><rect x="30" y="389.9" width="123.462" height="52.594" fill="#F1F1F1" style="stroke:#181818;stroke-width:0.5;" rx="2.5" ry="2.5"/><text x="50.521" y="412.895" fill="#000" font-size="14" textLength="82.421" font-style="italic">«Resource»</text><text x="40" y="429.192" fill="#000" font-size="14" textLength="103.462">gungnir-testkit</text></g><!--entity RS_track_fusion--><g class="entity" data-qualified-name="Tracking core.RS_track_fusion" id="ent0014" data-source-line="19"><rect x="566" y="333.9" width="162.194" height="52.594" fill="#F1F1F1" style="stroke:#181818;stroke-width:0.5;" rx="2.5" ry="2.5"/><text x="605.887" y="356.895" fill="#000" font-size="14" textLength="82.421" font-style="italic">«Resource»</text><text x="576" y="373.192" fill="#000" font-size="14" textLength="142.194">gungnir-track-fusion</text></g><!--entity RS_track--><g class="entity" data-qualified-name="Tracking core.RS_track" id="ent0015" data-source-line="20"><rect x="764" y="182.9" width="114.719" height="52.594" fill="#F1F1F1" style="stroke:#181818;stroke-width:0.5;" rx="2.5" ry="2.5"/><text x="780.149" y="205.895" fill="#000" font-size="14" textLength="82.421" font-style="italic">«Resource»</text><text x="774" y="222.192" fill="#000" font-size="14" textLength="94.719">gungnir-track</text></g><g class="link" data-entity-1="ent0002" data-entity-2="ent0005" id="lnk16" data-link-type="dependency"><polygon points="1296.402,161.02,1289.502,153.992,1291.752,159.182,1286.561,161.432,1296.402,161.02" fill="#181818" style="stroke:#181818;stroke-width:1;stroke-linejoin:miter;stroke-miterlimit:10;"/><path d="M1250.944,143.055 C1266.062,149.029 1277.259,153.455 1291.752,159.182" style="stroke:#181818;stroke-width:1;" fill="none"/></g><g class="link" data-entity-1="ent0003" data-entity-2="ent0006" id="lnk17" data-link-type="dependency"><polygon points="1122.814,299.926,1115.034,293.887,1117.96,298.728,1113.118,301.654,1122.814,299.926" fill="#181818" style="stroke:#181818;stroke-width:1;stroke-linejoin:miter;stroke-miterlimit:10;"/><path d="M1073.012,287.642 C1089.681,291.753 1102.164,294.832 1117.96,298.728" style="stroke:#181818;stroke-width:1;" fill="none"/></g><g class="link" data-entity-1="ent0006" data-entity-2="ent0005" id="lnk18" data-link-type="dependency"><polygon points="1316.755,209.073,1307.214,211.516,1312.833,212.173,1312.175,217.792,1316.755,209.073" fill="#181818" style="stroke:#181818;stroke-width:1;stroke-linejoin:miter;stroke-miterlimit:10;"/><path d="M1217.295,287.688 C1246.269,264.787 1283.873,235.063 1312.833,212.173" style="stroke:#181818;stroke-width:1;" fill="none"/></g><g class="link" data-entity-1="ent0006" data-entity-2="ent0004" id="lnk19" data-link-type="dependency"><polygon points="1291.872,344.251,1284.258,338.005,1287.052,342.924,1282.133,345.718,1291.872,344.251" fill="#181818" style="stroke:#181818;stroke-width:1;stroke-linejoin:miter;stroke-miterlimit:10;"/><path d="M1242.378,330.618 C1258.436,335.041 1271.008,338.504 1287.052,342.924" style="stroke:#181818;stroke-width:1;" fill="none"/></g><g class="link" data-entity-1="ent0007" data-entity-2="ent0015" id="lnk20" data-link-type="dependency"><polygon points="763.807,201.282,755.271,196.369,758.834,200.763,754.44,204.326,763.807,201.282" fill="#181818" style="stroke:#181818;stroke-width:1;stroke-linejoin:miter;stroke-miterlimit:10;"/><path d="M478.252,261.776 C500.855,244.027 533.222,222.218 566,212.4 C631.716,192.716 706.351,195.284 758.834,200.763" style="stroke:#181818;stroke-width:1;" fill="none"/></g><g class="link" data-entity-1="ent0007" data-entity-2="ent0010" id="lnk21" data-link-type="dependency"><polygon points="594.868,180.852,585.042,181.518,590.447,183.187,588.778,188.592,594.868,180.852" fill="#181818" style="stroke:#181818;stroke-width:1;stroke-linejoin:miter;stroke-miterlimit:10;"/><path d="M479.045,261.649 C502.286,242.579 535.095,216.959 566,197.4 C575.099,191.642 580.684,188.344 590.447,183.187" style="stroke:#181818;stroke-width:1;" fill="none"/></g><g class="link" data-entity-1="ent0007" data-entity-2="ent0014" id="lnk22" data-link-type="dependency"><polygon points="572.754,333.833,565.658,327.004,568.054,332.128,562.93,334.524,572.754,333.833" fill="#181818" style="stroke:#181818;stroke-width:1;stroke-linejoin:miter;stroke-miterlimit:10;"/><path d="M520.568,314.904 C537.592,321.079 551.023,325.95 568.054,332.128" style="stroke:#181818;stroke-width:1;" fill="none"/></g><g class="link" data-entity-1="ent0007" data-entity-2="ent0005" id="lnk23" data-link-type="dependency"><polygon points="1296.236,179.973,1287.444,175.534,1291.242,179.727,1287.05,183.525,1296.236,179.973" fill="#181818" style="stroke:#181818;stroke-width:1;stroke-linejoin:miter;stroke-miterlimit:10;"/><path d="M457.024,261.897 C472.765,222.596 508.328,150.296 566,120.4 C636.912,83.641 940.34,151.774 1109,167.4 C1173.207,173.349 1242.249,177.311 1291.242,179.727" style="stroke:#181818;stroke-width:1;" fill="none"/></g><g class="link" data-entity-1="ent0007" data-entity-2="ent0006" id="lnk24" data-link-type="dependency"><polygon points="1122.688,312.317,1113.835,308.001,1117.691,312.14,1113.552,315.996,1122.688,312.317" fill="#181818" style="stroke:#181818;stroke-width:1;stroke-linejoin:miter;stroke-miterlimit:10;"/><path d="M530.272,291.332 C680.053,296.638 987.582,307.531 1117.691,312.14" style="stroke:#181818;stroke-width:1;" fill="none"/></g><g class="link" data-entity-1="ent0007" data-entity-2="ent0003" id="lnk25" data-link-type="dependency"><polygon points="914.777,274.072,905.526,270.692,909.788,274.411,906.069,278.674,914.777,274.072" fill="#181818" style="stroke:#181818;stroke-width:1;stroke-linejoin:miter;stroke-miterlimit:10;"/><path d="M530.066,288.221 C585.955,287.854 661.445,286.883 728,284.4 C790.87,282.055 857.048,278.002 909.788,274.411" style="stroke:#181818;stroke-width:1;" fill="none"/></g><g class="link" data-entity-1="ent0008" data-entity-2="ent0015" id="lnk26" data-link-type="dependency"><polygon points="763.913,222.194,754.252,220.277,759.036,223.297,756.016,228.08,763.913,222.194" fill="#181818" style="stroke:#181818;stroke-width:1;stroke-linejoin:miter;stroke-miterlimit:10;"/><path d="M712.723,233.767 C729.549,229.963 742.666,226.998 759.036,223.297" style="stroke:#181818;stroke-width:1;" fill="none"/></g><g class="link" data-entity-1="ent0008" data-entity-2="ent0003" id="lnk27" data-link-type="dependency"><polygon points="914.8,263.867,906.047,259.353,909.808,263.578,905.584,267.339,914.8,263.867" fill="#181818" style="stroke:#181818;stroke-width:1;stroke-linejoin:miter;stroke-miterlimit:10;"/><path d="M712.892,252.162 C770.181,255.483 848.842,260.043 909.808,263.578" style="stroke:#181818;stroke-width:1;" fill="none"/></g><g class="link" data-entity-1="ent0009" data-entity-2="ent0006" id="lnk28" data-link-type="dependency"><polygon points="1139.416,340.954,1129.632,342.088,1135.111,343.497,1133.702,348.976,1139.416,340.954" fill="#181818" style="stroke:#181818;stroke-width:1;stroke-linejoin:miter;stroke-miterlimit:10;"/><path d="M131.504,364.915 C138.784,370.2 146.227,375.84 153,381.4 C170.01,395.364 169.075,406.055 189,415.4 C292.963,464.161 330.67,446.4 445.5,446.4 C445.5,446.4 445.5,446.4 822.5,446.4 C943.525,446.4 1069.875,382.043 1135.111,343.497" style="stroke:#181818;stroke-width:1;" fill="none"/></g><g class="link" data-entity-1="ent0009" data-entity-2="ent0003" id="lnk29" data-link-type="dependency"><polygon points="960.061,295.203,950.484,297.501,956.092,298.244,955.349,303.851,960.061,295.203" fill="#181818" style="stroke:#181818;stroke-width:1;stroke-linejoin:miter;stroke-miterlimit:10;"/><path d="M152.585,362.913 C221.94,388.952 340.022,426.4 445.5,426.4 C445.5,426.4 445.5,426.4 648,426.4 C772.51,426.4 897.249,343.322 956.092,298.244" style="stroke:#181818;stroke-width:1;" fill="none"/></g><g class="link" data-entity-1="ent0009" data-entity-2="ent0010" id="lnk30" data-link-type="dependency"><polygon points="594.835,170.942,585.079,169.59,590.03,172.326,587.294,177.277,594.835,170.942" fill="#181818" style="stroke:#181818;stroke-width:1;stroke-linejoin:miter;stroke-miterlimit:10;"/><path d="M152.698,313.2 C164.659,308.44 177.176,303.632 189,299.4 C334.587,247.299 505.06,196.803 590.03,172.326" style="stroke:#181818;stroke-width:1;" fill="none"/></g><g class="link" data-entity-1="ent0009" data-entity-2="ent0011" id="lnk31" data-link-type="dependency"><polygon points="188.904,336.056,179.81,332.276,183.906,336.178,180.004,340.274,188.904,336.056" fill="#181818" style="stroke:#181818;stroke-width:1;stroke-linejoin:miter;stroke-miterlimit:10;"/><path d="M152.82,336.934 C164.557,336.648 171.938,336.469 183.906,336.178" style="stroke:#181818;stroke-width:1;" fill="none"/></g><g class="link" data-entity-1="ent0010" data-entity-2="ent0015" id="lnk32" data-link-type="dependency"><polygon points="763.983,192.036,756.554,185.569,759.203,190.567,754.205,193.216,763.983,192.036" fill="#181818" style="stroke:#181818;stroke-width:1;stroke-linejoin:miter;stroke-miterlimit:10;"/><path d="M699.289,172.159 C719.648,178.414 738.356,184.162 759.203,190.567" style="stroke:#181818;stroke-width:1;" fill="none"/></g><g class="link" data-entity-1="ent0011" data-entity-2="ent0005" id="lnk33" data-link-type="dependency"><polygon points="1296.073,174.034,1287.752,168.765,1291.126,173.305,1286.586,176.679,1296.073,174.034" fill="#181818" style="stroke:#181818;stroke-width:1;stroke-linejoin:miter;stroke-miterlimit:10;"/><path d="M283.199,307.761 C331.178,257.206 444.296,148.963 566,110.4 C796.716,37.297 868.667,122.875 1109,151.4 C1174.31,159.152 1190.796,159.802 1256,168.4 C1268.99,170.113 1278.015,171.373 1291.126,173.305" style="stroke:#181818;stroke-width:1;" fill="none"/></g><g class="link" data-entity-1="ent0011" data-entity-2="ent0004" id="lnk34" data-link-type="dependency"><polygon points="1291.985,372.667,1282.388,370.455,1287.076,373.62,1283.912,378.309,1291.985,372.667" fill="#181818" style="stroke:#181818;stroke-width:1;stroke-linejoin:miter;stroke-miterlimit:10;"/><path d="M327.279,330.425 C395.951,327.612 496.343,327.085 530,345.4 C554.37,358.662 541.621,383.155 566,396.4 C665.465,450.442 707.302,406.4 820.5,406.4 C820.5,406.4 820.5,406.4 995,406.4 C1100.33,406.4 1216.865,387.247 1287.076,373.62" style="stroke:#181818;stroke-width:1;" fill="none"/></g><g class="link" data-entity-1="ent0011" data-entity-2="ent0007" id="lnk35" data-link-type="dependency"><polygon points="362.977,308.754,353.281,307.026,358.123,309.952,355.197,314.793,362.977,308.754" fill="#181818" style="stroke:#181818;stroke-width:1;stroke-linejoin:miter;stroke-miterlimit:10;"/><path d="M327.122,317.598 C338.777,314.724 346.142,312.907 358.123,309.952" style="stroke:#181818;stroke-width:1;" fill="none"/></g><g class="link" data-entity-1="ent0011" data-entity-2="ent0012" id="lnk36" data-link-type="dependency"><polygon points="368.732,361.466,360.952,355.427,363.877,360.268,359.036,363.194,368.732,361.466" fill="#181818" style="stroke:#181818;stroke-width:1;stroke-linejoin:miter;stroke-miterlimit:10;"/><path d="M327.122,351.203 C340.65,354.539 350.085,356.866 363.877,360.268" style="stroke:#181818;stroke-width:1;" fill="none"/></g><g class="link" data-entity-1="ent0014" data-entity-2="ent0015" id="lnk37" data-link-type="dependency"><polygon points="790.072,236.036,780.666,238.954,786.31,239.329,785.935,244.973,790.072,236.036" fill="#181818" style="stroke:#181818;stroke-width:1;stroke-linejoin:miter;stroke-miterlimit:10;"/><path d="M678.442,333.752 C709.877,306.236 754.881,266.841 786.31,239.329" style="stroke:#181818;stroke-width:1;" fill="none"/></g><g class="link" data-entity-1="ent0014" data-entity-2="ent0004" id="lnk38" data-link-type="dependency"><polygon points="1291.581,360.4,1282.581,356.4,1286.581,360.4,1282.581,364.4,1291.581,360.4" fill="#181818" style="stroke:#181818;stroke-width:1;stroke-linejoin:miter;stroke-miterlimit:10;"/><path d="M728.243,360.4 C870.987,360.4 1160.823,360.4 1286.581,360.4" style="stroke:#181818;stroke-width:1;" fill="none"/></g><g class="link" data-entity-1="ent0015" data-entity-2="ent0005" id="lnk39" data-link-type="dependency"><polygon points="1296.032,185.302,1286.834,181.783,1291.039,185.566,1287.256,189.772,1296.032,185.302" fill="#181818" style="stroke:#181818;stroke-width:1;stroke-linejoin:miter;stroke-miterlimit:10;"/><path d="M879.308,206.556 C962.139,202.401 1120.915,194.402 1256,187.4 C1268.962,186.729 1277.93,186.259 1291.039,185.566" style="stroke:#181818;stroke-width:1;" fill="none"/></g><g class="link" data-entity-1="ent0015" data-entity-2="ent0003" id="lnk40" data-link-type="dependency"><polygon points="916.14,241.804,908.943,235.08,911.415,240.168,906.327,242.64,916.14,241.804" fill="#181818" style="stroke:#181818;stroke-width:1;stroke-linejoin:miter;stroke-miterlimit:10;"/><path d="M879.274,229.046 C891.092,233.136 899.011,235.876 911.415,240.168" style="stroke:#181818;stroke-width:1;" fill="none"/></g><?plantuml-src ZPF1Ri8m38RlUGgFqtPW3p0XBhm1snr58IqHQLmvPb8rxTsNbZIqeR2SMl_k5zlnNpPiDUpzUkU0jCSBAGqAdTEApRVXxWE-IAgpSNMGISDhHTZ0JbADxuoDVHClBScwaM1bXnS6tsYMJWeVc5QIR0BNjEYquq_kGZ4AHqjNMptvn1gdkMir8F49XTKL0oEGgKyCHzCZ1freGoUorh2QzRI27m6tAh2gBwvsXjRIMbIo9rSWFUm_3pS5Dfjzd7UxVO1xZyhC-PjKS812fEE83a4Hr4yqCk76_qSgOrcJ7waObe0N7oO9WtPE9NhG3eDMS4JODXcLQiUm0CImGficlKO565MfLdWj0BpIJfB1aHhZ4bGxZ-5XcWGFoY4e1JXhpsV38nl34h1tTrnEedijBgVqY1axXtx5_6zOhxUZuKJcyvYAhX8JWsNGdHmCBt97nUJGqgDaMEnJBcOUVPFwMSXDfrX8J-OM4pVdJMTwHaKltrUS9vvIyGhcucXT4SsVjvMidLt4lHutaoUcLxAKlzbVv9RCUrbAfhfNGsPTpiJ9vVm1?></g></svg>