<svg xmlns="http://www.w3.org/2000/svg" xmlns:xlink="http://www.w3.org/1999/xlink" version="1.1" data-diagram-type="DESCRIPTION" style="width:768px;height:531px;background:#FFFFFF;" width="768px" height="531px" viewBox="0 0 768 531" zoomAndPan="magnify" preserveAspectRatio="none" contentStyleType="text/css"><?plantuml 1.2026.8?><defs/><g font-family="sans-serif" lengthAdjust="spacing"><g class="title" data-source-line="1"><text x="53.575" y="22.995" fill="#000" font-size="14" textLength="653.851" font-weight="700">Rs-Cn resource connectivity: Understand &amp; Maintain the Picture (from Cargo.toml)</text></g><!--cluster Understand & Maintain the Picture--><g class="cluster" data-qualified-name="Understand . Maintain the Picture" id="ent0001" data-source-line="6"><path d="M16.5,49.297 L293.043,49.297 A3.75,3.75 0 0 1 295.543,51.797 L302.543,71.594 L437.5,71.594 A2.5,2.5 0 0 1 440,74.094 L440,301.797 A2.5,2.5 0 0 1 437.5,304.297 L16.5,304.297 A2.5,2.5 0 0 1 14,301.797 L14,51.797 A2.5,2.5 0 0 1 16.5,49.297" style="stroke:#000;stroke-width:1.5;" fill="none"/><line x1="14" y1="71.594" x2="302.543" y2="71.594" style="stroke:#000;stroke-width:1.5;"/><text x="18" y="64.292" fill="#000" font-size="14" textLength="275.543" font-weight="700">Understand &amp; Maintain the Picture</text></g><!--entity RS_coord--><g class="entity" data-qualified-name="RS_coord" id="ent0006" data-source-line="12"><rect x="551.5" y="112.797" width="198.63" height="68.891" fill="#F1F1F1" style="stroke:#181818;stroke-width:1;stroke-dasharray:7,7;" rx="2.5" ry="2.5"/><text x="613.009" y="135.792" fill="#000" font-size="14" textLength="75.612" font-style="italic">«External»</text><text x="561.5" y="152.089" fill="#000" font-size="14" textLength="39.471">coord</text><text x="561.5" y="168.386" fill="#000" font-size="14" textLength="178.63">(see Rs-Cn-tracking-core)</text></g><!--entity RS_data--><g class="entity" data-qualified-name="RS_data" id="ent0007" data-source-line="13"><rect x="542" y="277.797" width="217.743" height="68.891" fill="#F1F1F1" style="stroke:#181818;stroke-width:1;stroke-dasharray:7,7;" rx="2.5" ry="2.5"/><text x="613.065" y="300.792" fill="#000" font-size="14" textLength="75.612" font-style="italic">«External»</text><text x="552" y="317.089" fill="#000" font-size="14" textLength="31.534">data</text><text x="552" y="333.386" fill="#000" font-size="14" textLength="197.743">(see Rs-Cn-data-ecosystem)</text></g><!--entity RS_model--><g class="entity" data-qualified-name="RS_model" id="ent0008" data-source-line="14"><rect x="256.5" y="446.797" width="229.836" height="68.891" fill="#F1F1F1" style="stroke:#181818;stroke-width:1;stroke-dasharray:7,7;" rx="2.5" ry="2.5"/><text x="333.612" y="469.792" fill="#000" font-size="14" textLength="75.612" font-style="italic">«External»</text><text x="266.5" y="486.089" fill="#000" font-size="14" textLength="43.593">model</text><text x="266.5" y="502.386" fill="#000" font-size="14" textLength="209.836">(see Rs-Cn-foundation-model)</text></g><!--entity RS_sensor_management--><g class="entity" data-qualified-name="RS_sensor_management" id="ent0009" data-source-line="15"><rect x="237" y="320.797" width="268.657" height="68.891" fill="#F1F1F1" style="stroke:#181818;stroke-width:1;stroke-dasharray:7,7;" rx="2.5" ry="2.5"/><text x="333.522" y="343.792" fill="#000" font-size="14" textLength="75.612" font-style="italic">«External»</text><text x="247" y="360.089" fill="#000" font-size="14" textLength="147.178">sensor_management</text><text x="247" y="376.386" fill="#000" font-size="14" textLength="248.657">(see Rs-Cn-sense-ingest-normalize)</text></g><!--entity RS_analytics--><g class="entity" data-qualified-name="Understand . Maintain the Picture.RS_analytics" id="ent0002" data-source-line="7"><rect x="44.5" y="92.797" width="141.666" height="52.594" fill="#F1F1F1" style="stroke:#181818;stroke-width:0.5;" rx="2.5" ry="2.5"/><text x="74.123" y="115.792" fill="#000" font-size="14" textLength="82.421" font-style="italic">«Resource»</text><text x="54.5" y="132.089" fill="#000" font-size="14" textLength="121.666">gungnir-analytics</text></g><!--entity RS_geo--><g class="entity" data-qualified-name="Understand . Maintain the Picture.RS_geo" id="ent0003" data-source-line="8"><rect x="319" y="147.797" width="105.155" height="52.594" fill="#F1F1F1" style="stroke:#181818;stroke-width:0.5;" rx="2.5" ry="2.5"/><text x="330.367" y="170.792" fill="#000" font-size="14" textLength="82.421" font-style="italic">«Resource»</text><text x="329" y="187.089" fill="#000" font-size="14" textLength="85.155">gungnir-geo</text></g><!--entity RS_identification--><g class="entity" data-qualified-name="Understand . Maintain the Picture.RS_identification" id="ent0004" data-source-line="9"><rect x="30" y="163.797" width="170.644" height="52.594" fill="#F1F1F1" style="stroke:#181818;stroke-width:0.5;" rx="2.5" ry="2.5"/><text x="74.111" y="186.792" fill="#000" font-size="14" textLength="82.421" font-style="italic">«Resource»</text><text x="40" y="203.089" fill="#000" font-size="14" textLength="150.644">gungnir-identification</text></g><!--entity RS_identity--><g class="entity" data-qualified-name="Understand . Maintain the Picture.RS_identity" id="ent0005" data-source-line="10"><rect x="49" y="234.797" width="132.506" height="52.594" fill="#F1F1F1" style="stroke:#181818;stroke-width:0.5;" rx="2.5" ry="2.5"/><text x="74.042" y="257.792" fill="#000" font-size="14" textLength="82.421" font-style="italic">«Resource»</text><text x="59" y="274.089" fill="#000" font-size="14" textLength="112.506">gungnir-identity</text></g><g class="link" data-entity-1="ent0002" data-entity-2="ent0006" id="lnk10" data-link-type="dependency"><polygon points="551.247,140.946,542.506,136.406,546.256,140.642,542.02,144.391,551.247,140.946" fill="#181818" style="stroke:#181818;stroke-width:1;stroke-linejoin:miter;stroke-miterlimit:10;"/><path d="M186.525,122.424 C264.506,125.974 394.295,132.082 506,138.297 C520.631,139.111 531.104,139.719 546.256,140.642" style="stroke:#181818;stroke-width:1;" fill="none"/></g><g class="link" data-entity-1="ent0002" data-entity-2="ent0007" id="lnk11" data-link-type="dependency"><polygon points="606.894,346.922,597.253,348.931,602.836,349.842,601.925,355.425,606.894,346.922" fill="#181818" style="stroke:#181818;stroke-width:1;stroke-linejoin:miter;stroke-miterlimit:10;"/><path d="M186.724,141.025 C192.111,144.774 196.998,149.162 201,154.297 C268.652,241.107 153.712,327.353 237,399.297 C282.238,438.373 448.416,415.342 506,399.297 C542.859,389.027 575.644,369.406 602.836,349.842" style="stroke:#181818;stroke-width:1;" fill="none"/></g><g class="link" data-entity-1="ent0002" data-entity-2="ent0003" id="lnk12" data-link-type="dependency"><polygon points="318.778,163.097,310.828,157.283,313.891,162.039,309.135,165.102,318.778,163.097" fill="#181818" style="stroke:#181818;stroke-width:1;stroke-linejoin:miter;stroke-miterlimit:10;"/><path d="M186.579,134.471 C228.429,143.533 275.789,153.789 313.891,162.039" style="stroke:#181818;stroke-width:1;" fill="none"/></g><g class="link" data-entity-1="ent0002" data-entity-2="ent0008" id="lnk13" data-link-type="dependency"><polygon points="256.466,450.319,251.395,441.876,252.373,447.447,246.801,448.425,256.466,450.319" fill="#181818" style="stroke:#181818;stroke-width:1;stroke-linejoin:miter;stroke-miterlimit:10;"/><path d="M186.817,140.953 C192.185,144.717 197.042,149.128 201,154.297 C276.74,253.218 159.253,334.945 237,432.297 C242.546,439.242 245.08,442.331 252.373,447.447" style="stroke:#181818;stroke-width:1;" fill="none"/></g><g class="link" data-entity-1="ent0002" data-entity-2="ent0009" id="lnk14" data-link-type="dependency"><polygon points="250.588,320.726,245.834,312.1,246.604,317.704,241,318.474,250.588,320.726" fill="#181818" style="stroke:#181818;stroke-width:1;stroke-linejoin:miter;stroke-miterlimit:10;"/><path d="M186.677,141.659 C192,145.271 196.889,149.455 201,154.297 C246.49,207.882 190.075,255.964 237,308.297 C241.101,312.87 241.69,313.978 246.604,317.704" style="stroke:#181818;stroke-width:1;" fill="none"/></g><g class="link" data-entity-1="ent0003" data-entity-2="ent0006" id="lnk15" data-link-type="dependency"><polygon points="551.264,156.904,541.919,153.794,546.288,157.388,542.694,161.756,551.264,156.904" fill="#181818" style="stroke:#181818;stroke-width:1;stroke-linejoin:miter;stroke-miterlimit:10;"/><path d="M424.045,169.282 C459.704,165.812 503.308,161.57 546.288,157.388" style="stroke:#181818;stroke-width:1;" fill="none"/></g><g class="link" data-entity-1="ent0003" data-entity-2="ent0007" id="lnk16" data-link-type="dependency"><polygon points="580.416,277.693,574.138,270.104,575.939,275.466,570.576,277.267,580.416,277.693" fill="#181818" style="stroke:#181818;stroke-width:1;stroke-linejoin:miter;stroke-miterlimit:10;"/><path d="M424.045,199.93 C468.089,221.833 527.371,251.314 575.939,275.466" style="stroke:#181818;stroke-width:1;" fill="none"/></g><g class="link" data-entity-1="ent0004" data-entity-2="ent0008" id="lnk17" data-link-type="dependency"><polygon points="256.497,449.832,251.364,441.426,252.383,446.991,246.818,448.009,256.497,449.832" fill="#181818" style="stroke:#181818;stroke-width:1;stroke-linejoin:miter;stroke-miterlimit:10;"/><path d="M191.956,217.082 C195.274,219.861 198.325,222.924 201,226.297 C258.755,299.117 177.408,360.972 237,432.297 C242.62,439.023 245.134,441.984 252.383,446.991" style="stroke:#181818;stroke-width:1;" fill="none"/></g><g class="link" data-entity-1="ent0005" data-entity-2="ent0008" id="lnk18" data-link-type="dependency"><polygon points="259.467,446.735,253.471,438.922,255.075,444.347,249.65,445.95,259.467,446.735" fill="#181818" style="stroke:#181818;stroke-width:1;stroke-linejoin:miter;stroke-miterlimit:10;"/><path d="M128.802,287.975 C147.272,325.27 185.563,392.84 237,432.297 C243.954,437.631 247.154,440.04 255.075,444.347" style="stroke:#181818;stroke-width:1;" fill="none"/></g><?plantuml-src ZLB1Qjmm4BtxAwPRACb1-O0IV0az1ig6t0fXa6Qr8jACaSObRkc_LpQxZhqnxHuCrXkzzqPlHeD6Wdqn3moPYlJP4bXX9glXPz3XApopermKsS4NUCJ0MZ_G8y7tOBNF13U7B0aUC7kvKqdnjldKPVG98U8WlK99LFdObDV07MPCrI9rmiJwf4Dj85SxP1zfSIK69Xqw0ibwb2RIGK45Sl171HT6IX1kEhIlw0bs_-rp1xyRU7U6dU_PSyYcjXO73RRi00lidrvc0ExlzwTKsdQRx4dEjFfx1I6uUWo7O77i_ynTerVBwB0Mq65D_TCig5OaknzyK-WqSgEvfXVO6okPRizIqxsgy-rDATSesXO-ZzEuSrYEv9QI3XLNYYDWo4ePYbAQ9KVuEiKaZk9AyY0zkoaMCnLdqUbqdMeXBf9VKfsifrIXbSDO9LDpeAA69IUCuTTx7X_8__1SROynxPpdPcMCPRDGLsaJdvwyMVdGP7FQoCic5jZP_cBvBhtcrLeM_W80?></g></svg>