<svg xmlns="http://www.w3.org/2000/svg" xmlns:xlink="http://www.w3.org/1999/xlink" version="1.1" data-diagram-type="CLASS" style="width:2145px;height:1278px;background:#FFFFFF;" width="2145px" height="1278px" viewBox="0 0 2145 1278" zoomAndPan="magnify" preserveAspectRatio="none" contentStyleType="text/css"><?plantuml 1.2026.8?><defs/><g font-family="sans-serif" lengthAdjust="spacing"><g class="title" data-source-line="1"><text x="850.67" y="22.995" fill="#000" font-size="14" textLength="436.659" font-weight="700">If-Sr information structure: Policy, authority &amp; settings</text></g><!--class AnomalySettings--><g class="entity" data-qualified-name="AnomalySettings" id="ent0001" data-source-line="6"><rect x="6" y="1005.297" width="316.732" height="113.453" fill="#F1F1F1" style="stroke:#181818;stroke-width:0.5;" rx="2.5" ry="2.5"/><ellipse cx="95.032" cy="1025.43" rx="11" ry="11" fill="#ADD1B2" style="stroke:#181818;stroke-width:1;"/><path d="M98.001,1031.07 Q97.423,1031.367 96.782,1031.508 Q96.142,1031.664 95.438,1031.664 Q92.938,1031.664 91.61,1030.023 Q90.298,1028.367 90.298,1025.242 Q90.298,1022.117 91.61,1020.461 Q92.938,1018.805 95.438,1018.805 Q96.142,1018.805 96.782,1018.961 Q97.438,1019.117 98.001,1019.414 L98.001,1022.133 Q97.376,1021.555 96.782,1021.289 Q96.188,1021.008 95.563,1021.008 Q94.22,1021.008 93.532,1022.086 Q92.845,1023.148 92.845,1025.242 Q92.845,1027.336 93.532,1028.414 Q94.22,1029.477 95.563,1029.477 Q96.188,1029.477 96.782,1029.211 Q97.376,1028.93 98.001,1028.352 L98.001,1031.07 Z " fill="#000"/><text x="113.532" y="1021.436" fill="#000" font-size="12" textLength="134.168" font-style="italic">«InformationElement»</text><text x="121.202" y="1037.261" fill="#000" font-size="14" textLength="118.829">AnomalySettings</text><line x1="7" y1="1045.563" x2="321.732" y2="1045.563" style="stroke:#181818;stroke-width:0.5;"/><text x="12" y="1062.558" fill="#000" font-size="14" textLength="256.389">loitering: Option&lt;LoiteringSettings></text><text x="12" y="1078.854" fill="#000" font-size="14" textLength="289.844">kinematics: Option&lt;KinematicEnvelope></text><text x="12" y="1095.151" fill="#000" font-size="14" textLength="201.981">feed: Option&lt;FeedSettings></text><text x="12" y="1111.448" fill="#000" font-size="14" textLength="304.732">cooperative: Option&lt;CooperativeSettings></text></g><!--class LoiteringSettings--><g class="entity" data-qualified-name="LoiteringSettings" id="ent0002" data-source-line="12"><rect x="643" y="868.297" width="162.168" height="80.859" fill="#F1F1F1" style="stroke:#181818;stroke-width:0.5;" rx="2.5" ry="2.5"/><ellipse cx="658" cy="888.43" rx="11" ry="11" fill="#ADD1B2" style="stroke:#181818;stroke-width:1;"/><path d="M660.969,894.07 Q660.391,894.367 659.75,894.508 Q659.109,894.664 658.406,894.664 Q655.906,894.664 654.578,893.023 Q653.266,891.367 653.266,888.242 Q653.266,885.117 654.578,883.461 Q655.906,881.805 658.406,881.805 Q659.109,881.805 659.75,881.961 Q660.406,882.117 660.969,882.414 L660.969,885.133 Q660.344,884.555 659.75,884.289 Q659.156,884.008 658.531,884.008 Q657.188,884.008 656.5,885.086 Q655.813,886.148 655.813,888.242 Q655.813,890.336 656.5,891.414 Q657.188,892.477 658.531,892.477 Q659.156,892.477 659.75,892.211 Q660.344,891.93 660.969,891.352 L660.969,894.07 Z " fill="#000"/><text x="670" y="884.436" fill="#000" font-size="12" textLength="134.168" font-style="italic">«InformationElement»</text><text x="677.492" y="900.261" fill="#000" font-size="14" textLength="119.185">LoiteringSettings</text><line x1="644" y1="908.563" x2="804.168" y2="908.563" style="stroke:#181818;stroke-width:0.5;"/><text x="649" y="925.558" fill="#000" font-size="14" textLength="148.524">max_speed_mps: f64</text><text x="649" y="941.854" fill="#000" font-size="14" textLength="138.517">min_duration_s: f64</text></g><!--class KinematicEnvelope--><g class="entity" data-qualified-name="KinematicEnvelope" id="ent0003" data-source-line="16"><rect x="628" y="967.297" width="191.669" height="80.859" fill="#F1F1F1" style="stroke:#181818;stroke-width:0.5;" rx="2.5" ry="2.5"/><ellipse cx="654.361" cy="987.43" rx="11" ry="11" fill="#ADD1B2" style="stroke:#181818;stroke-width:1;"/><path d="M657.33,993.07 Q656.752,993.367 656.111,993.508 Q655.471,993.664 654.767,993.664 Q652.267,993.664 650.939,992.023 Q649.627,990.367 649.627,987.242 Q649.627,984.117 650.939,982.461 Q652.267,980.805 654.767,980.805 Q655.471,980.805 656.111,980.961 Q656.767,981.117 657.33,981.414 L657.33,984.133 Q656.705,983.555 656.111,983.289 Q655.517,983.008 654.892,983.008 Q653.549,983.008 652.861,984.086 Q652.174,985.148 652.174,987.242 Q652.174,989.336 652.861,990.414 Q653.549,991.477 654.892,991.477 Q655.517,991.477 656.111,991.211 Q656.705,990.93 657.33,990.352 L657.33,993.07 Z " fill="#000"/><text x="671.013" y="983.436" fill="#000" font-size="12" textLength="134.168" font-style="italic">«InformationElement»</text><text x="670.886" y="999.261" fill="#000" font-size="14" textLength="134.422">KinematicEnvelope</text><line x1="629" y1="1007.563" x2="818.669" y2="1007.563" style="stroke:#181818;stroke-width:0.5;"/><text x="634" y="1024.558" fill="#000" font-size="14" textLength="148.524">max_speed_mps: f64</text><text x="634" y="1040.854" fill="#000" font-size="14" textLength="179.669">max_climb_rate_mps: f64</text></g><!--class FeedSettings--><g class="entity" data-qualified-name="FeedSettings" id="ent0004" data-source-line="20"><rect x="643" y="1066.297" width="162.168" height="97.156" fill="#F1F1F1" style="stroke:#181818;stroke-width:0.5;" rx="2.5" ry="2.5"/><ellipse cx="658" cy="1086.43" rx="11" ry="11" fill="#ADD1B2" style="stroke:#181818;stroke-width:1;"/><path d="M660.969,1092.07 Q660.391,1092.367 659.75,1092.508 Q659.109,1092.664 658.406,1092.664 Q655.906,1092.664 654.578,1091.023 Q653.266,1089.367 653.266,1086.242 Q653.266,1083.117 654.578,1081.461 Q655.906,1079.805 658.406,1079.805 Q659.109,1079.805 659.75,1079.961 Q660.406,1080.117 660.969,1080.414 L660.969,1083.133 Q660.344,1082.555 659.75,1082.289 Q659.156,1082.008 658.531,1082.008 Q657.188,1082.008 656.5,1083.086 Q655.813,1084.148 655.813,1086.242 Q655.813,1088.336 656.5,1089.414 Q657.188,1090.477 658.531,1090.477 Q659.156,1090.477 659.75,1090.211 Q660.344,1089.93 660.969,1089.352 L660.969,1092.07 Z " fill="#000"/><text x="670" y="1082.436" fill="#000" font-size="12" textLength="134.168" font-style="italic">«InformationElement»</text><text x="691.29" y="1098.261" fill="#000" font-size="14" textLength="91.588">FeedSettings</text><line x1="644" y1="1106.563" x2="804.168" y2="1106.563" style="stroke:#181818;stroke-width:0.5;"/><text x="649" y="1123.558" fill="#000" font-size="14" textLength="128.796">silence_factor: f64</text><text x="649" y="1139.854" fill="#000" font-size="14" textLength="133.424">rate_tolerance: f64</text><text x="649" y="1156.151" fill="#000" font-size="14" textLength="130.915">max_rejected: u32</text></g><!--class CooperativeSettings--><g class="entity" data-qualified-name="CooperativeSettings" id="ent0005" data-source-line="25"><rect x="635.5" y="1181.297" width="176.575" height="80.859" fill="#F1F1F1" style="stroke:#181818;stroke-width:0.5;" rx="2.5" ry="2.5"/><ellipse cx="651.461" cy="1201.43" rx="11" ry="11" fill="#ADD1B2" style="stroke:#181818;stroke-width:1;"/><path d="M654.429,1207.07 Q653.851,1207.367 653.211,1207.508 Q652.57,1207.664 651.867,1207.664 Q649.367,1207.664 648.039,1206.023 Q646.726,1204.367 646.726,1201.242 Q646.726,1198.117 648.039,1196.461 Q649.367,1194.805 651.867,1194.805 Q652.57,1194.805 653.211,1194.961 Q653.867,1195.117 654.429,1195.414 L654.429,1198.133 Q653.804,1197.555 653.211,1197.289 Q652.617,1197.008 651.992,1197.008 Q650.648,1197.008 649.961,1198.086 Q649.273,1199.148 649.273,1201.242 Q649.273,1203.336 649.961,1204.414 Q650.648,1205.477 651.992,1205.477 Q652.617,1205.477 653.211,1205.211 Q653.804,1204.93 654.429,1204.352 L654.429,1207.07 Z " fill="#000"/><text x="669.81" y="1197.436" fill="#000" font-size="12" textLength="134.168" font-style="italic">«InformationElement»</text><text x="665.674" y="1213.261" fill="#000" font-size="14" textLength="142.44">CooperativeSettings</text><line x1="636.5" y1="1221.563" x2="811.075" y2="1221.563" style="stroke:#181818;stroke-width:0.5;"/><text x="641.5" y="1238.558" fill="#000" font-size="14" textLength="111.809">lost_after_s: f64</text><text x="641.5" y="1254.854" fill="#000" font-size="14" textLength="164.575">max_separation_m: f64</text></g><!--class WeaponsControlStatus--><g class="entity" data-qualified-name="WeaponsControlStatus" id="ent0006" data-source-line="29"><rect x="1464.5" y="457.297" width="192.18" height="97.156" fill="#F1F1F1" style="stroke:#181818;stroke-width:0.5;" rx="2.5" ry="2.5"/><ellipse cx="1479.5" cy="477.43" rx="11" ry="11" fill="#EB937F" style="stroke:#181818;stroke-width:1;"/><path d="M1483.609,483.43 L1475.891,483.43 L1475.891,471.039 L1483.609,471.039 L1483.609,473.195 L1478.344,473.195 L1478.344,475.867 L1483.109,475.867 L1483.109,478.023 L1478.344,478.023 L1478.344,481.273 L1483.609,481.273 L1483.609,483.43 Z " fill="#000"/><text x="1506.506" y="473.436" fill="#000" font-size="12" textLength="134.168" font-style="italic">«InformationElement»</text><text x="1493.5" y="489.261" fill="#000" font-size="14" textLength="160.18">WeaponsControlStatus</text><line x1="1465.5" y1="497.563" x2="1655.68" y2="497.563" style="stroke:#181818;stroke-width:0.5;"/><text x="1470.5" y="514.558" fill="#000" font-size="14" textLength="31.035">Free</text><text x="1470.5" y="530.854" fill="#000" font-size="14" textLength="35.69">Tight</text><text x="1470.5" y="547.151" fill="#000" font-size="14" textLength="31.869">Hold</text></g><!--class IdentificationSettings--><g class="entity" data-qualified-name="IdentificationSettings" id="ent0007" data-source-line="34"><rect x="593" y="350.297" width="262.271" height="97.156" fill="#F1F1F1" style="stroke:#181818;stroke-width:0.5;" rx="2.5" ry="2.5"/><ellipse cx="645.278" cy="370.43" rx="11" ry="11" fill="#ADD1B2" style="stroke:#181818;stroke-width:1;"/><path d="M648.247,376.07 Q647.668,376.367 647.028,376.508 Q646.387,376.664 645.684,376.664 Q643.184,376.664 641.856,375.023 Q640.543,373.367 640.543,370.242 Q640.543,367.117 641.856,365.461 Q643.184,363.805 645.684,363.805 Q646.387,363.805 647.028,363.961 Q647.684,364.117 648.247,364.414 L648.247,367.133 Q647.622,366.555 647.028,366.289 Q646.434,366.008 645.809,366.008 Q644.465,366.008 643.778,367.086 Q643.09,368.148 643.09,370.242 Q643.09,372.336 643.778,373.414 Q644.465,374.477 645.809,374.477 Q646.434,374.477 647.028,374.211 Q647.622,373.93 648.247,373.352 L648.247,376.07 Z " fill="#000"/><text x="673.301" y="366.436" fill="#000" font-size="12" textLength="134.168" font-style="italic">«InformationElement»</text><text x="665.778" y="382.261" fill="#000" font-size="14" textLength="149.215">IdentificationSettings</text><line x1="594" y1="390.563" x2="854.271" y2="390.563" style="stroke:#181818;stroke-width:0.5;"/><text x="599" y="407.558" fill="#000" font-size="14" textLength="250.271">thresholds: BTreeMap&lt;String, f64></text><text x="599" y="423.854" fill="#000" font-size="14" textLength="154.971">minimum_margin: f64</text><text x="599" y="440.151" fill="#000" font-size="14" textLength="228.149">operator_confirms: Vec&lt;String></text></g><!--class StalenessSettings--><g class="entity" data-qualified-name="StalenessSettings" id="ent0008" data-source-line="39"><rect x="593" y="465.297" width="261.956" height="80.859" fill="#F1F1F1" style="stroke:#181818;stroke-width:0.5;" rx="2.5" ry="2.5"/><ellipse cx="654.644" cy="485.43" rx="11" ry="11" fill="#ADD1B2" style="stroke:#181818;stroke-width:1;"/><path d="M657.613,491.07 Q657.035,491.367 656.394,491.508 Q655.753,491.664 655.05,491.664 Q652.55,491.664 651.222,490.023 Q649.91,488.367 649.91,485.242 Q649.91,482.117 651.222,480.461 Q652.55,478.805 655.05,478.805 Q655.753,478.805 656.394,478.961 Q657.05,479.117 657.613,479.414 L657.613,482.133 Q656.988,481.555 656.394,481.289 Q655.8,481.008 655.175,481.008 Q653.832,481.008 653.144,482.086 Q652.457,483.148 652.457,485.242 Q652.457,487.336 653.144,488.414 Q653.832,489.477 655.175,489.477 Q655.8,489.477 656.394,489.211 Q656.988,488.93 657.613,488.352 L657.613,491.07 Z " fill="#000"/><text x="673.144" y="481.436" fill="#000" font-size="12" textLength="134.168" font-style="italic">«InformationElement»</text><text x="677.751" y="497.261" fill="#000" font-size="14" textLength="124.954">StalenessSettings</text><line x1="594" y1="505.563" x2="853.956" y2="505.563" style="stroke:#181818;stroke-width:0.5;"/><text x="599" y="522.558" fill="#000" font-size="14" textLength="95.464">default_s: f64</text><text x="599" y="538.854" fill="#000" font-size="14" textLength="249.956">by_class_s: BTreeMap&lt;String, f64></text></g><!--class ControlStatusSettings--><g class="entity" data-qualified-name="ControlStatusSettings" id="ent0009" data-source-line="43"><rect x="505" y="564.297" width="437.544" height="64.563" fill="#F1F1F1" style="stroke:#181818;stroke-width:0.5;" rx="2.5" ry="2.5"/><ellipse cx="643.048" cy="584.43" rx="11" ry="11" fill="#ADD1B2" style="stroke:#181818;stroke-width:1;"/><path d="M646.017,590.07 Q645.439,590.367 644.798,590.508 Q644.158,590.664 643.455,590.664 Q640.955,590.664 639.626,589.023 Q638.314,587.367 638.314,584.242 Q638.314,581.117 639.626,579.461 Q640.955,577.805 643.455,577.805 Q644.158,577.805 644.798,577.961 Q645.455,578.117 646.017,578.414 L646.017,581.133 Q645.392,580.555 644.798,580.289 Q644.205,580.008 643.58,580.008 Q642.236,580.008 641.548,581.086 Q640.861,582.148 640.861,584.242 Q640.861,586.336 641.548,587.414 Q642.236,588.477 643.58,588.477 Q644.205,588.477 644.798,588.211 Q645.392,587.93 646.017,587.352 L646.017,590.07 Z " fill="#000"/><text x="672.938" y="580.436" fill="#000" font-size="12" textLength="134.168" font-style="italic">«InformationElement»</text><text x="663.548" y="596.261" fill="#000" font-size="14" textLength="152.947">ControlStatusSettings</text><line x1="506" y1="604.563" x2="941.544" y2="604.563" style="stroke:#181818;stroke-width:0.5;"/><text x="511" y="621.558" fill="#000" font-size="14" textLength="425.544">by_layer: BTreeMap&lt;EffectorLayer, WeaponsControlStatus></text></g><!--class AuthorityRule--><g class="entity" data-qualified-name="AuthorityRule" id="ent0010" data-source-line="46"><rect x="1450.5" y="627.797" width="220.332" height="129.75" fill="#F1F1F1" style="stroke:#181818;stroke-width:0.5;" rx="2.5" ry="2.5"/><ellipse cx="1491.674" cy="647.93" rx="11" ry="11" fill="#ADD1B2" style="stroke:#181818;stroke-width:1;"/><path d="M1494.643,653.57 Q1494.064,653.867 1493.424,654.008 Q1492.783,654.164 1492.08,654.164 Q1489.58,654.164 1488.252,652.523 Q1486.939,650.867 1486.939,647.742 Q1486.939,644.617 1488.252,642.961 Q1489.58,641.305 1492.08,641.305 Q1492.783,641.305 1493.424,641.461 Q1494.08,641.617 1494.643,641.914 L1494.643,644.633 Q1494.018,644.055 1493.424,643.789 Q1492.83,643.508 1492.205,643.508 Q1490.861,643.508 1490.174,644.586 Q1489.486,645.648 1489.486,647.742 Q1489.486,649.836 1490.174,650.914 Q1490.861,651.977 1492.205,651.977 Q1492.83,651.977 1493.424,651.711 Q1494.018,651.43 1494.643,650.852 L1494.643,653.57 Z " fill="#000"/><text x="1509.49" y="643.936" fill="#000" font-size="12" textLength="134.168" font-style="italic">«InformationElement»</text><text x="1528.624" y="659.761" fill="#000" font-size="14" textLength="95.901">AuthorityRule</text><line x1="1451.5" y1="668.063" x2="1669.832" y2="668.063" style="stroke:#181818;stroke-width:0.5;"/><text x="1456.5" y="685.058" fill="#000" font-size="14" textLength="94.042">action: String</text><text x="1456.5" y="701.354" fill="#000" font-size="14" textLength="77.772">role: String</text><text x="1456.5" y="717.651" fill="#000" font-size="14" textLength="208.332">layer: Option&lt;EffectorLayer></text><text x="1456.5" y="733.948" fill="#000" font-size="14" textLength="155.887">class: Option&lt;String></text><text x="1456.5" y="750.245" fill="#000" font-size="14" textLength="139.788">pre_delegated: bool</text></g><!--class AuthoritySettings--><g class="entity" data-qualified-name="AuthoritySettings" id="ent0011" data-source-line="53"><rect x="623.5" y="647.297" width="200.843" height="64.563" fill="#F1F1F1" style="stroke:#181818;stroke-width:0.5;" rx="2.5" ry="2.5"/><ellipse cx="655.904" cy="667.43" rx="11" ry="11" fill="#ADD1B2" style="stroke:#181818;stroke-width:1;"/><path d="M658.872,673.07 Q658.294,673.367 657.654,673.508 Q657.013,673.664 656.31,673.664 Q653.81,673.664 652.482,672.023 Q651.169,670.367 651.169,667.242 Q651.169,664.117 652.482,662.461 Q653.81,660.805 656.31,660.805 Q657.013,660.805 657.654,660.961 Q658.31,661.117 658.872,661.414 L658.872,664.133 Q658.247,663.555 657.654,663.289 Q657.06,663.008 656.435,663.008 Q655.091,663.008 654.404,664.086 Q653.716,665.148 653.716,667.242 Q653.716,669.336 654.404,670.414 Q655.091,671.477 656.435,671.477 Q657.06,671.477 657.654,671.211 Q658.247,670.93 658.872,670.352 L658.872,673.07 Z " fill="#000"/><text x="671.771" y="663.436" fill="#000" font-size="12" textLength="134.168" font-style="italic">«InformationElement»</text><text x="677.745" y="679.261" fill="#000" font-size="14" textLength="122.22">AuthoritySettings</text><line x1="624.5" y1="687.563" x2="823.343" y2="687.563" style="stroke:#181818;stroke-width:0.5;"/><text x="629.5" y="704.558" fill="#000" font-size="14" textLength="188.843">rules: Vec&lt;AuthorityRule></text></g><!--class DecisionSettings--><g class="entity" data-qualified-name="DecisionSettings" id="ent0012" data-source-line="56"><rect x="961" y="735.297" width="354.228" height="80.859" fill="#F1F1F1" style="stroke:#181818;stroke-width:0.5;" rx="2.5" ry="2.5"/><ellipse cx="1068.78" cy="755.43" rx="11" ry="11" fill="#ADD1B2" style="stroke:#181818;stroke-width:1;"/><path d="M1071.749,761.07 Q1071.17,761.367 1070.53,761.508 Q1069.889,761.664 1069.186,761.664 Q1066.686,761.664 1065.358,760.023 Q1064.045,758.367 1064.045,755.242 Q1064.045,752.117 1065.358,750.461 Q1066.686,748.805 1069.186,748.805 Q1069.889,748.805 1070.53,748.961 Q1071.186,749.117 1071.749,749.414 L1071.749,752.133 Q1071.124,751.555 1070.53,751.289 Q1069.936,751.008 1069.311,751.008 Q1067.967,751.008 1067.28,752.086 Q1066.592,753.148 1066.592,755.242 Q1066.592,757.336 1067.28,758.414 Q1067.967,759.477 1069.311,759.477 Q1069.936,759.477 1070.53,759.211 Q1071.124,758.93 1071.749,758.352 L1071.749,761.07 Z " fill="#000"/><text x="1087.28" y="751.436" fill="#000" font-size="12" textLength="134.168" font-style="italic">«InformationElement»</text><text x="1095.852" y="767.261" fill="#000" font-size="14" textLength="117.024">DecisionSettings</text><line x1="962" y1="775.563" x2="1314.228" y2="775.563" style="stroke:#181818;stroke-width:0.5;"/><text x="967" y="792.558" fill="#000" font-size="14" textLength="286.822">expiry_s: BTreeMap&lt;EffectorLayer, f64></text><text x="967" y="808.854" fill="#000" font-size="14" textLength="342.228">escalate_after_s: BTreeMap&lt;EffectorLayer, f64></text></g><!--class FiresSettings--><g class="entity" data-qualified-name="FiresSettings" id="ent0013" data-source-line="60"><rect x="617.5" y="769.297" width="212.512" height="80.859" fill="#F1F1F1" style="stroke:#181818;stroke-width:0.5;" rx="2.5" ry="2.5"/><ellipse cx="655.155" cy="789.43" rx="11" ry="11" fill="#ADD1B2" style="stroke:#181818;stroke-width:1;"/><path d="M658.123,795.07 Q657.545,795.367 656.905,795.508 Q656.264,795.664 655.561,795.664 Q653.061,795.664 651.733,794.023 Q650.42,792.367 650.42,789.242 Q650.42,786.117 651.733,784.461 Q653.061,782.805 655.561,782.805 Q656.264,782.805 656.905,782.961 Q657.561,783.117 658.123,783.414 L658.123,786.133 Q657.498,785.555 656.905,785.289 Q656.311,785.008 655.686,785.008 Q654.342,785.008 653.655,786.086 Q652.967,787.148 652.967,789.242 Q652.967,791.336 653.655,792.414 Q654.342,793.477 655.686,793.477 Q656.311,793.477 656.905,793.211 Q657.498,792.93 658.123,792.352 L658.123,795.07 Z " fill="#000"/><text x="672.189" y="785.436" fill="#000" font-size="12" textLength="134.168" font-style="italic">«InformationElement»</text><text x="693.759" y="801.261" fill="#000" font-size="14" textLength="91.027">FiresSettings</text><line x1="618.5" y1="809.563" x2="829.012" y2="809.563" style="stroke:#181818;stroke-width:0.5;"/><text x="623.5" y="826.558" fill="#000" font-size="14" textLength="187.045">max_location_error_m: f64</text><text x="623.5" y="842.854" fill="#000" font-size="14" textLength="200.512">minimum_separation_m: f64</text></g><!--class ValidityWindow--><g class="entity" data-qualified-name="ValidityWindow" id="ent0014" data-source-line="64"><rect x="40" y="263.297" width="249.474" height="80.859" fill="#F1F1F1" style="stroke:#181818;stroke-width:0.5;" rx="2.5" ry="2.5"/><ellipse cx="95.403" cy="283.43" rx="11" ry="11" fill="#ADD1B2" style="stroke:#181818;stroke-width:1;"/><path d="M98.372,289.07 Q97.793,289.367 97.153,289.508 Q96.512,289.664 95.809,289.664 Q93.309,289.664 91.981,288.023 Q90.668,286.367 90.668,283.242 Q90.668,280.117 91.981,278.461 Q93.309,276.805 95.809,276.805 Q96.512,276.805 97.153,276.961 Q97.809,277.117 98.372,277.414 L98.372,280.133 Q97.747,279.555 97.153,279.289 Q96.559,279.008 95.934,279.008 Q94.59,279.008 93.903,280.086 Q93.215,281.148 93.215,283.242 Q93.215,285.336 93.903,286.414 Q94.59,287.477 95.934,287.477 Q96.559,287.477 97.153,287.211 Q97.747,286.93 98.372,286.352 L98.372,289.07 Z " fill="#000"/><text x="113.903" y="279.436" fill="#000" font-size="12" textLength="134.168" font-style="italic">«InformationElement»</text><text x="126.99" y="295.261" fill="#000" font-size="14" textLength="107.994">ValidityWindow</text><line x1="41" y1="303.563" x2="288.474" y2="303.563" style="stroke:#181818;stroke-width:0.5;"/><text x="46" y="320.558" fill="#000" font-size="14" textLength="169.162">valid_from: MissionTime</text><text x="46" y="336.854" fill="#000" font-size="14" textLength="237.474">valid_until: Option&lt;MissionTime></text></g><!--class PolicySettings--><g class="entity" data-qualified-name="PolicySettings" id="ent0015" data-source-line="68"><rect x="28" y="570.797" width="272.969" height="146.047" fill="#F1F1F1" style="stroke:#181818;stroke-width:0.5;" rx="2.5" ry="2.5"/><ellipse cx="95.15" cy="590.93" rx="11" ry="11" fill="#ADD1B2" style="stroke:#181818;stroke-width:1;"/><path d="M98.119,596.57 Q97.541,596.867 96.9,597.008 Q96.26,597.164 95.557,597.164 Q93.057,597.164 91.729,595.523 Q90.416,593.867 90.416,590.742 Q90.416,587.617 91.729,585.961 Q93.057,584.305 95.557,584.305 Q96.26,584.305 96.9,584.461 Q97.557,584.617 98.119,584.914 L98.119,587.633 Q97.494,587.055 96.9,586.789 Q96.307,586.508 95.682,586.508 Q94.338,586.508 93.65,587.586 Q92.963,588.648 92.963,590.742 Q92.963,592.836 93.65,593.914 Q94.338,594.977 95.682,594.977 Q96.307,594.977 96.9,594.711 Q97.494,594.43 98.119,593.852 L98.119,596.57 Z " fill="#000"/><text x="113.65" y="586.936" fill="#000" font-size="12" textLength="134.168" font-style="italic">«InformationElement»</text><text x="131.639" y="602.761" fill="#000" font-size="14" textLength="98.191">PolicySettings</text><line x1="29" y1="611.063" x2="299.969" y2="611.063" style="stroke:#181818;stroke-width:0.5;"/><text x="34" y="628.058" fill="#000" font-size="14" textLength="249.936">identification: IdentificationSettings</text><text x="34" y="644.354" fill="#000" font-size="14" textLength="200.061">staleness: StalenessSettings</text><text x="34" y="660.651" fill="#000" font-size="14" textLength="260.969">control_status: ControlStatusSettings</text><text x="34" y="676.948" fill="#000" font-size="14" textLength="195.187">authority: AuthoritySettings</text><text x="34" y="693.245" fill="#000" font-size="14" textLength="191.194">decisions: DecisionSettings</text><text x="34" y="709.542" fill="#000" font-size="14" textLength="130.676">fires: FiresSettings</text></g><!--class LayoutNode--><g class="entity" data-qualified-name="LayoutNode" id="ent0016" data-source-line="76"><rect x="1333" y="140.297" width="454.791" height="113.453" fill="#F1F1F1" style="stroke:#181818;stroke-width:0.5;" rx="2.5" ry="2.5"/><ellipse cx="1491.062" cy="160.43" rx="11" ry="11" fill="#EB937F" style="stroke:#181818;stroke-width:1;"/><path d="M1495.171,166.43 L1487.452,166.43 L1487.452,154.039 L1495.171,154.039 L1495.171,156.195 L1489.905,156.195 L1489.905,158.867 L1494.671,158.867 L1494.671,161.023 L1489.905,161.023 L1489.905,164.273 L1495.171,164.273 L1495.171,166.43 Z " fill="#000"/><text x="1509.562" y="156.436" fill="#000" font-size="12" textLength="134.168" font-style="italic">«InformationElement»</text><text x="1534.581" y="172.261" fill="#000" font-size="14" textLength="84.13">LayoutNode</text><line x1="1334" y1="180.563" x2="1786.791" y2="180.563" style="stroke:#181818;stroke-width:0.5;"/><text x="1339" y="197.558" fill="#000" font-size="14" textLength="138.271">Panel { pn: String }</text><text x="1339" y="213.854" fill="#000" font-size="14" textLength="263.601">Tabs { children: Vec&lt;LayoutNode> }</text><text x="1339" y="230.151" fill="#000" font-size="14" textLength="442.791">Horizontal { children: Vec&lt;LayoutNode>, shares: Vec&lt;f32>, }</text><text x="1339" y="246.448" fill="#000" font-size="14" textLength="424.799">Vertical { children: Vec&lt;LayoutNode>, shares: Vec&lt;f32>, }</text></g><!--class RoleLayout--><g class="entity" data-qualified-name="RoleLayout" id="ent0017" data-source-line="82"><rect x="635" y="156.297" width="177.936" height="80.859" fill="#F1F1F1" style="stroke:#181818;stroke-width:0.5;" rx="2.5" ry="2.5"/><ellipse cx="657.095" cy="176.43" rx="11" ry="11" fill="#ADD1B2" style="stroke:#181818;stroke-width:1;"/><path d="M660.064,182.07 Q659.486,182.367 658.845,182.508 Q658.205,182.664 657.502,182.664 Q655.002,182.664 653.674,181.023 Q652.361,179.367 652.361,176.242 Q652.361,173.117 653.674,171.461 Q655.002,169.805 657.502,169.805 Q658.205,169.805 658.845,169.961 Q659.502,170.117 660.064,170.414 L660.064,173.133 Q659.439,172.555 658.845,172.289 Q658.252,172.008 657.627,172.008 Q656.283,172.008 655.595,173.086 Q654.908,174.148 654.908,176.242 Q654.908,178.336 655.595,179.414 Q656.283,180.477 657.627,180.477 Q658.252,180.477 658.845,180.211 Q659.439,179.93 660.064,179.352 L660.064,182.07 Z " fill="#000"/><text x="670.672" y="172.436" fill="#000" font-size="12" textLength="134.168" font-style="italic">«InformationElement»</text><text x="698.562" y="188.261" fill="#000" font-size="14" textLength="78.388">RoleLayout</text><line x1="636" y1="196.563" x2="811.936" y2="196.563" style="stroke:#181818;stroke-width:0.5;"/><text x="641" y="213.558" fill="#000" font-size="14" textLength="128.276">main: LayoutNode</text><text x="641" y="229.854" fill="#000" font-size="14" textLength="165.936">detached: Vec&lt;String></text></g><!--class UiSettings--><g class="entity" data-qualified-name="UiSettings" id="ent0018" data-source-line="86"><rect x="17" y="148.297" width="295.356" height="97.156" fill="#F1F1F1" style="stroke:#181818;stroke-width:0.5;" rx="2.5" ry="2.5"/><ellipse cx="95.344" cy="168.43" rx="11" ry="11" fill="#ADD1B2" style="stroke:#181818;stroke-width:1;"/><path d="M98.313,174.07 Q97.735,174.367 97.094,174.508 Q96.454,174.664 95.75,174.664 Q93.25,174.664 91.922,173.023 Q90.61,171.367 90.61,168.242 Q90.61,165.117 91.922,163.461 Q93.25,161.805 95.75,161.805 Q96.454,161.805 97.094,161.961 Q97.75,162.117 98.313,162.414 L98.313,165.133 Q97.688,164.555 97.094,164.289 Q96.5,164.008 95.875,164.008 Q94.532,164.008 93.844,165.086 Q93.157,166.148 93.157,168.242 Q93.157,170.336 93.844,171.414 Q94.532,172.477 95.875,172.477 Q96.5,172.477 97.094,172.211 Q97.688,171.93 98.313,171.352 L98.313,174.07 Z " fill="#000"/><text x="113.844" y="164.436" fill="#000" font-size="12" textLength="134.168" font-style="italic">«InformationElement»</text><text x="145.149" y="180.261" fill="#000" font-size="14" textLength="71.559">UiSettings</text><line x1="18" y1="188.563" x2="311.356" y2="188.563" style="stroke:#181818;stroke-width:0.5;"/><text x="23" y="205.558" fill="#000" font-size="14" textLength="283.356">layouts: BTreeMap&lt;String, RoleLayout></text><text x="23" y="221.854" fill="#000" font-size="14" textLength="104.959">scene_3d: bool</text><text x="23" y="238.151" fill="#000" font-size="14" textLength="96.175">theme: String</text></g><!--class ThemeVariant--><g class="entity" data-qualified-name="ThemeVariant" id="ent0019" data-source-line="91"><rect x="83.5" y="49.297" width="162.168" height="80.859" fill="#F1F1F1" style="stroke:#181818;stroke-width:0.5;" rx="2.5" ry="2.5"/><ellipse cx="98.5" cy="69.43" rx="11" ry="11" fill="#EB937F" style="stroke:#181818;stroke-width:1;"/><path d="M102.609,75.43 L94.891,75.43 L94.891,63.039 L102.609,63.039 L102.609,65.195 L97.344,65.195 L97.344,67.867 L102.109,67.867 L102.109,70.023 L97.344,70.023 L97.344,73.273 L102.609,73.273 L102.609,75.43 Z " fill="#000"/><text x="110.5" y="65.436" fill="#000" font-size="12" textLength="134.168" font-style="italic">«InformationElement»</text><text x="128.068" y="81.261" fill="#000" font-size="14" textLength="99.032">ThemeVariant</text><line x1="84.5" y1="89.563" x2="244.668" y2="89.563" style="stroke:#181818;stroke-width:0.5;"/><text x="89.5" y="106.558" fill="#000" font-size="14" textLength="27.645">Day</text><text x="89.5" y="122.854" fill="#000" font-size="14" textLength="37.611">Night</text></g><!--class EffectorLayer--><g class="entity" data-qualified-name="EffectorLayer" id="ent0020" data-source-line="95"><rect x="1860" y="664.297" width="268.845" height="56.563" fill="#F1F1F1" style="stroke:#181818;stroke-width:1;stroke-dasharray:7,7;" rx="2.5" ry="2.5"/><ellipse cx="1875" cy="692.578" rx="11" ry="11" fill="#EB937F" style="stroke:#181818;stroke-width:1;"/><path d="M1879.109,698.578 L1871.391,698.578 L1871.391,686.188 L1879.109,686.188 L1879.109,688.344 L1873.844,688.344 L1873.844,691.016 L1878.609,691.016 L1878.609,693.172 L1873.844,693.172 L1873.844,696.422 L1879.109,696.422 L1879.109,698.578 Z " fill="#000"/><text x="1975.017" y="680.436" fill="#000" font-size="12" textLength="64.811" font-style="italic">«External»</text><text x="1960.494" y="696.261" fill="#000" font-size="14" textLength="93.857">EffectorLayer</text><text x="1889" y="712.558" fill="#000" font-size="14" textLength="236.845">(see If-Sr-plans-effectors-handoff)</text></g><!--class MissionTime--><g class="entity" data-qualified-name="MissionTime" id="ent0021" data-source-line="97"><rect x="565" y="275.297" width="318.31" height="56.563" fill="#F1F1F1" style="stroke:#181818;stroke-width:1;stroke-dasharray:7,7;" rx="2.5" ry="2.5"/><ellipse cx="580" cy="303.578" rx="11" ry="11" fill="#ADD1B2" style="stroke:#181818;stroke-width:1;"/><path d="M582.969,309.219 Q582.391,309.516 581.75,309.656 Q581.109,309.813 580.406,309.813 Q577.906,309.813 576.578,308.172 Q575.266,306.516 575.266,303.391 Q575.266,300.266 576.578,298.609 Q577.906,296.953 580.406,296.953 Q581.109,296.953 581.75,297.109 Q582.406,297.266 582.969,297.563 L582.969,300.281 Q582.344,299.703 581.75,299.438 Q581.156,299.156 580.531,299.156 Q579.188,299.156 578.5,300.234 Q577.813,301.297 577.813,303.391 Q577.813,305.484 578.5,306.563 Q579.188,307.625 580.531,307.625 Q581.156,307.625 581.75,307.359 Q582.344,307.078 582.969,306.5 L582.969,309.219 Z " fill="#000"/><text x="704.75" y="291.436" fill="#000" font-size="12" textLength="64.811" font-style="italic">«External»</text><text x="693.866" y="307.261" fill="#000" font-size="14" textLength="86.577">MissionTime</text><text x="594" y="323.558" fill="#000" font-size="14" textLength="286.31">(see If-Sr-core-identifiers-frames-quality)</text></g><g class="link" data-entity-1="ent0001" data-entity-2="ent0005" id="lnk22" data-link-type="dependency"><polygon points="635.281,1204.067,627.322,1198.266,630.392,1203.017,625.641,1206.088,635.281,1204.067" fill="#181818" style="stroke:#181818;stroke-width:1;stroke-linejoin:miter;stroke-miterlimit:10;"/><path d="M323.029,1116.746 C380.005,1135.704 445.062,1156.302 505,1172.797 C547.544,1184.505 590.432,1194.432 630.392,1203.017" style="stroke:#181818;stroke-width:1;" fill="none"/><text x="375.5" y="1118.864" fill="#000" font-size="13" textLength="77.016">cooperative</text></g><g class="link" data-entity-1="ent0001" data-entity-2="ent0004" id="lnk23" data-link-type="dependency"><polygon points="642.632,1107.156,634.051,1102.323,637.654,1106.683,633.294,1110.287,642.632,1107.156" fill="#181818" style="stroke:#181818;stroke-width:1;stroke-linejoin:miter;stroke-miterlimit:10;"/><path d="M323.022,1076.772 C427.186,1086.675 554.421,1098.771 637.654,1106.683" style="stroke:#181818;stroke-width:1;" fill="none"/><text x="400" y="1073.864" fill="#000" font-size="13" textLength="28.825">feed</text></g><g class="link" data-entity-1="ent0001" data-entity-2="ent0003" id="lnk24" data-link-type="dependency"><polygon points="627.886,1017.01,618.542,1013.896,622.909,1017.492,619.314,1021.859,627.886,1017.01" fill="#181818" style="stroke:#181818;stroke-width:1;stroke-linejoin:miter;stroke-miterlimit:10;"/><path d="M323.022,1046.539 C421.229,1037.027 539.392,1025.581 622.909,1017.492" style="stroke:#181818;stroke-width:1;" fill="none"/><text x="379" y="1025.864" fill="#000" font-size="13" textLength="70.637">kinematics</text></g><g class="link" data-entity-1="ent0001" data-entity-2="ent0002" id="lnk25" data-link-type="dependency"><polygon points="642.969,925.848,633.318,923.885,638.087,926.927,635.044,931.696,642.969,925.848" fill="#181818" style="stroke:#181818;stroke-width:1;stroke-linejoin:miter;stroke-miterlimit:10;"/><path d="M323.34,1013.164 C329.301,1011.349 335.204,1009.554 341,1007.797 C413.799,985.722 431.443,978.199 505,958.797 C550.43,946.814 596.735,936.067 638.087,926.927" style="stroke:#181818;stroke-width:1;" fill="none"/><text x="387.5" y="958.864" fill="#000" font-size="13" textLength="53.72">loitering</text></g><g class="link" data-entity-1="ent0009" data-entity-2="ent0020" id="lnk26" data-link-type="dependency"><polygon points="1930.659,664.137,1923.897,656.977,1926.046,662.209,1920.813,664.358,1930.659,664.137" fill="#181818" style="stroke:#181818;stroke-width:1;stroke-linejoin:miter;stroke-miterlimit:10;"/><path d="M943.11,593.006 C1206.02,589.89 1631.966,589.893 1788,618.797 C1837.403,627.948 1886.104,645.523 1926.046,662.209" style="stroke:#181818;stroke-width:1;" fill="none"/><text x="1533" y="587.864" fill="#000" font-size="13" textLength="55.06">by_layer</text></g><g class="link" data-entity-1="ent0009" data-entity-2="ent0006" id="lnk27" data-link-type="dependency"><polygon points="1464.471,516.16,1455.09,513.159,1459.5,516.702,1455.958,521.112,1464.471,516.16" fill="#181818" style="stroke:#181818;stroke-width:1;stroke-linejoin:miter;stroke-miterlimit:10;"/><path d="M943.165,573.007 C1112.308,554.562 1333.49,530.443 1459.5,516.702" style="stroke:#181818;stroke-width:1;" fill="none"/><text x="1110.5" y="526.864" fill="#000" font-size="13" textLength="55.06">by_layer</text></g><g class="link" data-entity-1="ent0010" data-entity-2="ent0020" id="lnk28" data-link-type="dependency"><polygon points="1859.808,692.797,1850.808,688.797,1854.808,692.797,1850.808,696.797,1859.808,692.797" fill="#181818" style="stroke:#181818;stroke-width:1;stroke-linejoin:miter;stroke-miterlimit:10;"/><path d="M1670.512,692.797 C1728.001,692.797 1794.018,692.797 1854.808,692.797" style="stroke:#181818;stroke-width:1;" fill="none"/><text x="1808" y="687.864" fill="#000" font-size="13" textLength="32.614">layer</text></g><g class="link" data-entity-1="ent0011" data-entity-2="ent0010" id="lnk29" data-link-type="dependency"><polygon points="1450.303,691.096,1441.367,686.956,1445.304,691.018,1441.242,694.955,1450.303,691.096" fill="#181818" style="stroke:#181818;stroke-width:1;stroke-linejoin:miter;stroke-miterlimit:10;"/><path d="M824.831,681.352 C982.306,683.805 1282.197,688.477 1445.304,691.018" style="stroke:#181818;stroke-width:1;" fill="none"/><text x="1122.5" y="677.864" fill="#000" font-size="13" textLength="31.967">rules</text></g><g class="link" data-entity-1="ent0012" data-entity-2="ent0020" id="lnk30" data-link-type="dependency"><polygon points="1945.702,721.507,1935.893,722.39,1941.333,723.939,1939.784,729.38,1945.702,721.507" fill="#181818" style="stroke:#181818;stroke-width:1;stroke-linejoin:miter;stroke-miterlimit:10;"/><path d="M1315.339,799.854 C1447.079,812.703 1630.757,819.721 1788,785.797 C1845.037,773.491 1900.926,746.438 1941.333,723.939" style="stroke:#181818;stroke-width:1;" fill="none"/><text x="1477" y="780.864" fill="#000" font-size="13" textLength="167.445">expiry_s, escalate_after_s</text></g><g class="link" data-entity-1="ent0014" data-entity-2="ent0021" id="lnk31" data-link-type="dependency"><polygon points="564.865,303.797,555.865,299.797,559.865,303.797,555.865,307.797,564.865,303.797" fill="#181818" style="stroke:#181818;stroke-width:1;stroke-linejoin:miter;stroke-miterlimit:10;"/><path d="M289.227,303.797 C370.467,303.797 472.466,303.797 559.865,303.797" style="stroke:#181818;stroke-width:1;" fill="none"/><text x="343" y="298.864" fill="#000" font-size="13" textLength="142.873">valid_from, valid_until</text></g><g class="link" data-entity-1="ent0015" data-entity-2="ent0011" id="lnk32" data-link-type="dependency"><polygon points="623.227,674.655,614.453,670.18,618.234,674.388,614.027,678.169,623.227,674.655" fill="#181818" style="stroke:#181818;stroke-width:1;stroke-linejoin:miter;stroke-miterlimit:10;"/><path d="M301.053,654.91 C314.546,655.927 328.04,656.907 341,657.797 C436.765,664.373 541.135,670.268 618.234,674.388" style="stroke:#181818;stroke-width:1;" fill="none"/><text x="384.5" y="652.864" fill="#000" font-size="13" textLength="59.243">authority</text></g><g class="link" data-entity-1="ent0015" data-entity-2="ent0009" id="lnk33" data-link-type="dependency"><polygon points="504.989,615.176,495.685,611.946,500.007,615.596,496.357,619.918,504.989,615.176" fill="#181818" style="stroke:#181818;stroke-width:1;stroke-linejoin:miter;stroke-miterlimit:10;"/><path d="M301.167,632.359 C362.405,627.197 431.302,621.388 500.007,615.596" style="stroke:#181818;stroke-width:1;" fill="none"/><text x="368.5" y="611.864" fill="#000" font-size="13" textLength="91.793">control_status</text></g><g class="link" data-entity-1="ent0015" data-entity-2="ent0012" id="lnk34" data-link-type="dependency"><polygon points="960.613,761.757,951.963,757.047,955.629,761.355,951.32,765.021,960.613,761.757" fill="#181818" style="stroke:#181818;stroke-width:1;stroke-linejoin:miter;stroke-miterlimit:10;"/><path d="M301.38,679.387 C314.745,682.663 328.122,685.852 341,688.797 C413.479,705.369 431.397,711.282 505,721.797 C549.049,728.09 784.409,747.56 955.629,761.355" style="stroke:#181818;stroke-width:1;" fill="none"/><text x="384" y="683.864" fill="#000" font-size="13" textLength="60.36">decisions</text></g><g class="link" data-entity-1="ent0015" data-entity-2="ent0013" id="lnk35" data-link-type="dependency"><polygon points="617.247,818.333,608.122,814.625,612.249,818.494,608.38,822.621,617.247,818.333" fill="#181818" style="stroke:#181818;stroke-width:1;stroke-linejoin:miter;stroke-miterlimit:10;"/><path d="M238.315,716.931 C267.748,741.967 303.595,767.299 341,781.797 C429.665,816.162 533.471,821.032 612.249,818.494" style="stroke:#181818;stroke-width:1;" fill="none"/><text x="400" y="776.864" fill="#000" font-size="13" textLength="28.304">fires</text></g><g class="link" data-entity-1="ent0015" data-entity-2="ent0007" id="lnk36" data-link-type="dependency"><polygon points="592.883,428.993,583.146,427.511,588.06,430.313,585.258,435.227,592.883,428.993" fill="#181818" style="stroke:#181818;stroke-width:1;stroke-linejoin:miter;stroke-miterlimit:10;"/><path d="M282.14,570.599 C301.617,558.98 321.747,547.332 341,536.797 C412.144,497.868 429.013,485.133 505,456.797 C532.98,446.363 558.81,438.319 588.06,430.313" style="stroke:#181818;stroke-width:1;" fill="none"/><text x="371.5" y="459.864" fill="#000" font-size="13" textLength="85.014">identification</text></g><g class="link" data-entity-1="ent0015" data-entity-2="ent0008" id="lnk37" data-link-type="dependency"><polygon points="592.636,534.052,582.981,532.104,587.755,535.139,584.721,539.913,592.636,534.052" fill="#181818" style="stroke:#181818;stroke-width:1;stroke-linejoin:miter;stroke-miterlimit:10;"/><path d="M301.369,604.365 C314.736,600.703 328.116,597.123 341,593.797 C424.359,572.279 513.73,551.627 587.755,535.139" style="stroke:#181818;stroke-width:1;" fill="none"/><text x="383.5" y="554.864" fill="#000" font-size="13" textLength="61.229">staleness</text></g><g class="link" data-entity-1="ent0017" data-entity-2="ent0016" id="lnk38" data-link-type="dependency"><polygon points="1332.714,196.797,1323.714,192.797,1327.714,196.797,1323.714,200.797,1332.714,196.797" fill="#181818" style="stroke:#181818;stroke-width:1;stroke-linejoin:miter;stroke-miterlimit:10;"/><path d="M813.122,196.797 C935.566,196.797 1156.408,196.797 1327.714,196.797" style="stroke:#181818;stroke-width:1;" fill="none"/><text x="1122" y="191.864" fill="#000" font-size="13" textLength="32.481">main</text></g><g class="link" data-entity-1="ent0018" data-entity-2="ent0017" id="lnk39" data-link-type="dependency"><polygon points="634.991,196.797,625.991,192.797,629.991,196.797,625.991,200.797,634.991,196.797" fill="#181818" style="stroke:#181818;stroke-width:1;stroke-linejoin:miter;stroke-miterlimit:10;"/><path d="M312.341,196.797 C414.93,196.797 543.499,196.797 629.991,196.797" style="stroke:#181818;stroke-width:1;" fill="none"/><text x="390.5" y="191.864" fill="#000" font-size="13" textLength="47.334">layouts</text></g><?plantuml-src dLVVRzms37xtNw5bmB01TyFG37iGWWEoDaM3fLtHIzEN0eREfdFQPCcJv3JNel_xAFcNP2ikjfSSJ97wI8hyo5Xk1P3hQhlNXCjAwPfPhYGnLhU5RJLGybO9NfmsXBNsg3It9_83CM0jb_Sc4r1POXNH_FveISar5Cu--wxHxBvcHB2JQYqnDLWcMNRa9H2e6xoaXle0scJcRouRfbbD2i6CkRHMyqDhuRfGSiy_0_abymVax5AgcedJliS-8yoGcOnSN5nFKLm9g47QtOvyoGWHYblGg4N9duqxlhWP98Fv3jNG7N3cXHdr_XX4L_81X6h0wLK0vQZn4Z_2Img5MXfD7c3KUJx99jMlGt0BNtnu2-bQW3Lxp4s3dkHrWyvNl_tgX5pcPQkzUjvBHz15O1vq8Vtle2Wi1AyFEGB3T382X_docA5W3Svm0RA0l6A5LNh0yoXM2Kml7ePUQFWBAzAzL7l-RC9Fl8Lt8o5VBobZSrRX4-LHx0PSHVkKrqFa8DkQd7q0rYXfdYjfjH9xospR8QSErg1VQW3ykNLzXx-lb2YdyAvBLEGLBxnX567wQ0t97ZMO8zwF8Vv-Yx2lMNEnjwugDowsNLTbl6xhl6RwdiiX5LqkbSwnbIkkQxpW3ehUDgXzZ1PV5Oo9F5r8rvmieMAjiDCp74wvlpr_qkkW68ASpyeXSRBc1g8Yuu4ECA-g2bojtZZv9ldEWI-N0yc-QqNNZP5a3PjvvgMa2z9r1JP4yDaxrhDHv9QdBEV0U3oy4I6DXhm40VVCjz51AP5mDoRbkNJDROrXzOKHXHeavGKKtCmBUIvSmu37XkjJL0gpP-dh64p1X2EJiQbN3IO-my4Nbqua-HQ12jMrOmvQOxlK0NdxjahnIOzynmGlCMKVk2pL9myTYzQm7vncNcc5jxxcngNpbjSmdhH85MAiYK0Z2BrR3wBOOz6Q0pnY8_e4EpdU7yY0Bdd1prlVJhdn_KJJZUjwPAWmkYnIpo9TJU4Dy_9o4zyzAOrVTYJs6x_el55brxNJvrhuRva4GRwGPcnRyjMHEZiOb1P7BaeDickEwSQTLtg5pd_6C9bOKzqGSsHwQB3g_1bAdFKTQ1pm_yTsVFXtI2-Tjezu-bolTZSU9X2VTCkAe-EMv71upwFQcZvN1xC7I57_vARhTrDW9UNd0w-vOOVNZAGvFEwjazunpPdiWWq5QtwyO2Vy-yOFwU6oY4W-oXyDz0lujX5CcYtqvsPxPDZ0LVMJXupC4FFg4HbACe58tmlSs7ukcS4i8koOkg1X8vn2QTWEhOSx-BR2zHlCzfyMkzwUEhp0-1jeynrykzqb5oaQhiL9gsWBf7x5JkejDrGQxEr9a-KcJQV_2BBqe7TsSThfEE5NJ9AhN60PJ_GKo4mlkZssfjtyp1RJC7NjC0OtYpcNpMQ6imuBW0QZOXCEXsp6zP67GQf7uaqPf5D9PwoUibo4JISEJ-d7Kvbsb9vIV69DfhE9bJ9Txgrq6bzPG9E-BASvGJqvPW71EOL0dmwqzYy0?></g></svg>